<?xml version="1.0" encoding="UTF-8"?>
<!DOCTYPE svg PUBLIC "-//W3C//DTD SVG 1.1//EN" "http://www.w3.org/Graphics/SVG/1.1/DTD/svg11.dtd">
<!-- Creator: CorelDRAW 2019 (64-Bit) -->
<svg xmlns="http://www.w3.org/2000/svg" xml:space="preserve" width="76.2mm" height="76.1846mm" version="1.1" style="shape-rendering:geometricPrecision; text-rendering:geometricPrecision; image-rendering:optimizeQuality; fill-rule:evenodd; clip-rule:evenodd"
viewBox="0 0 7620 7618.46"
 xmlns:xlink="http://www.w3.org/1999/xlink"
 xmlns:xodm="http://www.corel.com/coreldraw/odm/2003">
 <defs>
  <style type="text/css">
   <![CDATA[
    .fil16 {fill:#FEFEFE}
    .fil7 {fill:#D9DADA}
    .fil4 {fill:#2B2A29}
    .fil0 {fill:#A2D9F7}
    .fil1 {fill:#002B7F}
    .fil10 {fill:#231F20}
    .fil12 {fill:#716E6F}
    .fil14 {fill:#777676}
    .fil13 {fill:#817F7F}
    .fil9 {fill:#BEBDBD}
    .fil5 {fill:#CCCBCB}
    .fil8 {fill:#CDCDCD}
    .fil3 {fill:#CE1126}
    .fil15 {fill:#DBDBDD}
    .fil2 {fill:#FCD116}
    .fil6 {fill:#FEFEFE}
    .fil11 {fill:white}
    .fil17 {fill:#FEFEFE;fill-rule:nonzero}
   ]]>
  </style>
 </defs>
 <g id="Layer_x0020_1">
  <metadata id="CorelCorpID_0Corel-Layer"/>
  <g id="_1782562965600">
   <path class="fil0" d="M1477.65 2138.03c-19.15,42.25 -173.08,254.04 -265.81,459.78 -75.73,168.07 -143.36,344.01 -188.65,539.76 -75.27,325.44 -99.99,656.41 -61.31,993.38 6.64,57.84 33.26,275.25 56.67,310.48 66.95,6.4 714.18,10.92 756.46,1.81l-0.79 -126.91 -74.73 -0.86 0.7 -131.2 74.95 0 0.15 -751.37 -71.06 0c-9.64,-33.59 -5.54,-94.91 -2.68,-131.36l227.02 0 -2.26 -262.95 -151.1 -3.31 -0.73 -114.41 -86.85 0 0 -203.2c125.1,0 250.22,0 375.33,0 46.29,0 141.63,15.46 170.72,-13.1 31.72,-31.16 52.25,-64.4 89.54,-97.55 117.71,-104.66 267.26,-225.51 436.65,-311.08 269.37,-136.1 548.62,-228.32 864.14,-256.56 74.16,-6.64 26.54,3.71 118.92,-69.35 156.79,-123.97 245.77,-54.91 369.87,54.34 20.77,18.27 49.05,14.42 79.2,17.55 362.98,37.5 739.47,168.36 1029.59,369.33 98.22,68.03 226.97,168.3 304.04,257.02 52.27,60.17 34.01,49.45 134.58,49.4 114.71,-0.04 254.99,-7.16 366.62,1.3l0 201.42 -60.15 0.48 -0.13 115.87 -74.82 1.56 -0.29 263.24 98.28 0c2.55,36.45 6.63,97.77 -3.01,131.17l-99.92 1.54 0.39 748.89 104.19 0.26 0 131.99 -104.28 0.62 1.93 135.72 713.28 1.15c51.24,-146.56 74.51,-483.74 74.03,-655.79 -0.63,-228.67 -29.26,-441.57 -78.05,-654.54 -74.33,-324.4 -208.03,-616.73 -380.69,-889.25 -21.2,-33.47 -62.2,-83.03 -75.2,-114.22 -25,-20.28 -74.6,-95.54 -98.43,-124.73l-207.2 -231.11c-98.48,-100.52 -248.27,-224.17 -359.51,-304.47 -481.26,-347.41 -1008.62,-516.99 -1667.23,-535.3 -736.47,-20.47 -1527.17,328.9 -2031.03,841.91 -37.59,38.26 -66.89,70.58 -106.16,112.88 -16.06,17.3 -32.78,37.91 -50.53,59.15l-144.65 180.62z"/>
   <path class="fil1" d="M2072.18 7194.49c67.54,-138.63 141.03,-278.65 212.74,-416.09 36.75,-70.41 71.75,-141.35 107.07,-208.92 22.56,-43.17 93.76,-170.76 104,-214.64 -97.12,-26 -420.14,-258.4 -506.72,-330.96 -79.02,-66.23 -386.14,-347.89 -408.15,-420.41 -25.49,-14.45 -8.59,-9.98 -26.83,-25.36 -25.41,-27.15 -170.85,-230.07 -181.88,-267.74 -14.71,-16.37 -16.46,-16.73 -26.32,-41.19 -27.2,-38.2 -43.87,-78.52 -69.4,-116.86l-13.06 -27.28 -20.33 -45.98c-33.81,-34.91 -161.02,-368.06 -175.3,-439.38l234.8 -1.12 -238.88 -3.01 -42.86 -165.14 -2.51 -28.98c-23.41,-35.23 -50.03,-252.64 -56.67,-310.48 -38.68,-336.97 -13.96,-667.94 61.31,-993.38 45.29,-195.75 112.92,-371.69 188.65,-539.76 92.73,-205.74 246.66,-417.53 265.81,-459.78l-762.04 -544.55c-1.02,1.02 -2.55,1.25 -2.94,3.15l-203.35 311.58c-116.92,216.17 -205.34,384.09 -287.62,621.37 -12.4,35.74 -24.34,63.25 -35.54,99.84 -92.43,302.03 -162.89,615.94 -179.71,935.56l-6.45 380.41c9.47,175.27 32.21,373.62 58.92,534.17 23.42,140.79 61.16,301.22 101.48,427.16 53.3,166.49 105.45,319.9 176.98,474.14 15.19,32.77 26.2,52.76 41.14,87.79 67.44,158.03 295.75,518.96 400.66,650.13 40.34,50.42 75.74,97.02 118.36,145.95 21.06,24.16 37.65,45.52 58.51,70.44 53.65,64.18 132.98,140.02 193.1,200.15 122.14,122.13 221.59,200.98 352.07,305.49l309.95 212.22c27.62,16.41 56.98,34.33 84.54,50.84 27.49,16.48 54.27,29.73 82.2,46.74 24.37,14.82 64.92,38.2 94.27,43.88z"/>
   <path class="fil2" d="M715.61 1593.48l762.04 544.55 144.65 -180.62c17.75,-21.24 34.47,-41.85 50.53,-59.15 39.27,-42.3 68.57,-74.62 106.16,-112.88 503.86,-513.01 1294.56,-862.38 2031.03,-841.91 658.61,18.31 1185.97,187.89 1667.23,535.3 111.24,80.3 261.03,203.95 359.51,304.47l207.2 231.11c23.83,29.19 73.43,104.45 98.43,124.73 127.09,-86.16 255.82,-179.29 379.86,-271.32 64.58,-47.9 128.79,-91.96 191.96,-136.92 32.92,-23.44 172.32,-118.63 188,-138.51 -14.13,-31.59 -95.7,-132.72 -122.31,-165.6l-132.39 -157.7c-21.97,-27.54 -46.85,-43.79 -69.15,-72.68 -51.89,-67.21 -139.42,-136.74 -184.93,-182.52 -157.18,-158.09 -436.3,-357.26 -628.85,-473.53 -168.69,-101.86 -401.95,-218.86 -588.83,-287.92 -453.26,-167.49 -870.12,-252.38 -1365.73,-252.38 -589.6,0 -1064.6,120.39 -1561.97,333.36 -107.03,45.84 -325.9,163.89 -428.81,228.75 -338.09,213.08 -577.57,414.76 -844.23,702.97l-197.76 240.61c-20.84,27.65 -47.7,58.64 -61.64,87.79z"/>
   <path class="fil3" d="M6142.39 2139.08c13,31.19 54,80.75 75.2,114.22 172.66,272.52 306.36,564.85 380.69,889.25 48.79,212.97 77.42,425.87 78.05,654.54 0.48,172.05 -22.79,509.23 -74.03,655.79l-5.74 26.72 -47.56 174.37c-22.61,90.55 -136.81,387.6 -180.07,444.06l-17.31 33.31 -14.34 26.29c-8.31,25.68 -21.11,53.79 -40.86,69.9 -8.22,29.6 -11.22,30.6 -28.27,50.61 -15.13,44.7 -177.99,278.06 -201.91,297.45l-19.9 28.11 -93.18 111.03c-15.6,19.41 -33.64,32.88 -50.31,52.65 -66.6,79.05 -188.46,187.6 -271.84,256.71 -81.2,67.33 -421.47,313.88 -507.79,330.24 10.54,43.13 275.85,551.71 318.83,633.17 32.42,61.44 83.47,146.89 105.5,206.99 28.49,-5.4 65.93,-26.68 90.61,-41.41 29.47,-17.59 52.05,-30.15 82.06,-46.86l163.57 -100.74c85.52,-50.45 224.58,-160.81 303.21,-218.97l106.54 -86.86c13.72,-12.21 17.68,-18.91 33.4,-31.07 99.95,-77.3 322.04,-316.53 392.53,-400.42 205.08,-244.08 318.33,-419.6 470.72,-702.57l86.02 -171.84c15.46,-33.38 26.89,-62.29 40.97,-94.4 53.92,-122.96 98.33,-254.27 140.89,-387.74 41.11,-128.96 75.26,-276.68 101.2,-421 13.05,-72.59 26.28,-153.84 33.83,-224.03 4.33,-40.34 7.73,-82.3 12.25,-116.68 9.89,-75.35 14.6,-300.7 14.65,-378.6l-37.53 -491.08c-31.57,-222.98 -77.94,-432.49 -146.99,-639.52 -76.86,-230.41 -125.3,-346.46 -230.21,-556.28 -81.7,-163.42 -143.59,-262.64 -244.11,-413.44 -9.55,-14.35 -16.14,-24.51 -25.69,-38.78l-22.55 -29.47c-6.58,-6.98 -4.21,-4.6 -10.71,-10.4 -15.68,19.88 -155.08,115.07 -188,138.51 -63.17,44.96 -127.38,89.02 -191.96,136.92 -124.04,92.03 -252.77,185.16 -379.86,271.32z"/>
   <path class="fil4" d="M5781.86 5026.08l0.75 543.26c-21.59,16.52 -204.76,7.83 -231.99,7.83 -384.82,0 -3609.36,7.7 -3672.78,-2.62l-1.07 -556.22 3422.43 -2.04 367.46 0 58.11 -0.12 57.09 9.91zm-3979.99 -75.04l0.56 -25.29 4056.75 0 0.46 63.93 -25.37 0.59 38.68 -0.1 -4100.09 0 29.01 0 0 -39.13zm4018.15 -1518.19l40.02 0 -0.01 1466.13 -39.42 0 -0.59 -1466.13zm-88.08 1421.97l61.37 -0.06 -0.18 42.12 -60.71 2.16 -0.48 -44.22zm-66.64 -1421.97l40.04 0 -0.03 1466.13 -39.42 0 -0.59 -1466.13zm-87.6 1422.49l60.88 -0.66 -0.17 42.2 -60.28 1.96 -0.43 -43.5zm-66.66 -1422.49l40.03 0 -0.02 1466.13 -39.47 0 -0.54 -1466.13zm-88.48 1422.03l61.71 -0.26 -0.2 42.63 -61.05 1.65 -0.46 -44.02zm-66.24 -1422.03l39.58 0 -0.03 1466.13 -39.01 0 -0.54 -1466.13zm-88.07 1422.49l61.34 -0.87 -0.19 42.83 -60.71 1.48 -0.44 -43.44zm-67.11 -1422.49l40.5 0 -0.03 1466.13 -39.89 0 -0.58 -1466.13zm-87.61 1422.49l60.89 -0.66 -0.17 42.2 -60.28 1.96 -0.44 -43.5zm-66.65 -1422.49l40.03 0 -0.02 1466.13 -39.47 0 -0.54 -1466.13zm-88.07 1422.49l61.34 -0.87 -0.19 42.83 -60.71 1.48 -0.44 -43.44zm-66.65 -1422.49l40.03 0 -0.02 1466.13 -39.47 0 -0.54 -1466.13zm-87.57 1423.01l60.82 -1.47 -0.17 42.91 -60.22 1.28 -0.43 -42.72zm-67.15 -1423.01l40.49 0 -0.03 1466.13 -39.92 0 -0.54 -1466.13zm-87.11 1423.51l60.36 -2.05 -0.17 42.99 -59.85 1.09 -0.34 -42.03zm-67.16 -1423.51l40.49 0 -0.03 1466.13 -39.97 0 -0.49 -1466.13zm-87.08 1424l60.36 -2.85 -0.17 43.76 -59.9 0.39 -0.29 -41.3zm-67.18 -1424l40.51 0 -0.05 1466.13 -39.99 0 -0.47 -1466.13zm-87.54 1424l60.84 -3.08 -0.2 44.42 -60.36 -0.11 -0.28 -41.23zm-66.71 -1423.3l12.4 -0.7 27.61 0 -0.02 1466.13 -39.55 -0.26 -0.44 -1465.17zm-88.01 1423.3l61.3 -3.31 -0.22 45.09 -60.8 -0.62 -0.28 -41.16zm-66.71 -1423.3l12.4 -0.7 27.61 0 -0.02 1466.13 -39.55 -0.26 -0.44 -1465.17zm-87.65 1420.36l60.91 0.23 -0.25 44.44 -59.84 0.51 -0.82 -45.18zm-67.07 -1420.36l12.4 -0.7 28.09 0 0 1466.13 -40.05 -0.26 -0.44 -1465.17zm-87.65 1420.36l60.91 0.23 -0.25 44.44 -59.84 0.51 -0.82 -45.18zm-66.63 -1419.7l11.96 -1.37 28.13 0.01 -0.04 1466.13 -39.64 -0.51 -0.41 -1464.26zm-88.09 1419.7l61.37 0 -0.27 45.09 -60.28 0 -0.82 -45.09zm-66.63 -1419.7l11.96 -1.37 28.1 0.01 -0.01 1466.13 -39.64 -0.51 -0.41 -1464.26zm-87.63 1419.7l60.91 0 -0.27 45.09 -59.91 0 -0.73 -45.09zm-66.61 -1418.97l11.48 -2.12 28.52 0.03 0.01 1466.13 -39.64 -0.77 -0.37 -1463.27zm-88.11 1418.97l61.32 0 -0.25 45.09 -60.23 0 -0.84 -45.09zm-1085.25 0.42l993.76 -1.83 -0.37 46.48 -992.95 -0.04 -0.44 -44.61zm-151.07 -0.42l60.79 0 -0.28 45.09 -59.86 0 -0.65 -45.09zm-32.77 45.05l-28.24 0 -7.72 -12.91 -0.67 -1082.52 3.25 -370.59 38.39 -1.12 3.51 1422.63 -8.52 44.51zm-121.51 -45.05l60.38 0 -0.31 45.09 -59.42 0 -0.65 -45.09zm-32.04 45.4l-28.25 -0.67 -8.85 -82.98 2.91 -1382.37 38.49 -1.72 3.76 1422.88 0.14 25.98 -8.2 18.88zm-122.68 -45.4l60.86 0 -0.34 45.09 -59.91 0 -0.61 -45.09zm-31.23 45.64l-28.98 -1.09 -8.54 -82.8 2.72 -1382.16 38.54 -2.33 4.04 1423.27 0.11 26.02 -7.89 19.09zm4049.27 -148.9l66.04 -1.39 -0.68 77.99 -64.04 -0.34 -1.32 -76.26zm-154.72 0l61.41 -0.08 -0.34 74.81 -59.75 1.83 -1.32 -76.56zm-150.63 -1.5l51.43 0.82 6.93 14.39 -0.67 62.26 -61.61 2.32 -1.67 -58.78 1.78 -11.49 3.81 -9.52zm-158.81 1.13l61.86 -0.34 -0.36 75.81 -60.18 1.39 -1.32 -76.86zm-150.04 -1.39l51.73 0.4 5.7 77.65 -61.72 1.64 2.12 -74.97 2.17 -4.72zm-155.31 -0.2l51.43 0.88 6.26 77.05 -61.61 2.32 3.92 -80.25zm-154.13 0.2l51.73 0.4 5.7 77.65 -61.72 1.64 2.12 -74.97 2.17 -4.72zm-153.63 0.23l51.43 0 6.86 34.05 -1.75 43.97 -61.64 1.49 -1.6 -38.8 6.7 -40.71zm-153.62 0.34l50.8 -0.46 4.79 78.3 -61.41 1.3 5.82 -79.14zm-153.17 0.42l50.68 -1.3 5.75 34.58 -1.86 44.67 -61.44 0.48 -1.39 -38.47 8.26 -39.96zm-101.07 4.61l0.36 72.01 -54.72 1.5 -4.69 -79.48 59.05 5.97zm-154.33 -1.05l0.39 73.43 -55.14 1.13 -4.69 -79.48 59.44 4.92zm-215.03 -4.38l61.08 0.29 -0.46 77.52 -58.34 0.43 -2.28 -78.24zm-154.72 0l61.08 0.29 -0.46 77.52 -58.34 0.43 -2.28 -78.24zm-154.72 0l61.55 0 -0.5 78.18 -58.76 0 -2.29 -78.18zm-154.24 0l61.07 0 -0.5 78.18 -58.4 0 -2.17 -78.18zm-154.72 0l61.49 0 -0.48 78.18 -58.84 0 -2.17 -78.18zm-1083.65 37.66l990.71 -2.45 -0.56 41.61 -988.57 -0.14 -1.58 -39.02zm-152.67 -37.66l61 0 -0.6 78.19 -58.58 -0.01 -1.82 -78.18zm-154.24 0l60.48 0 -0.56 78.19 -58.27 -0.01 -1.65 -78.18zm-154.72 0l60.97 0 -0.63 78.19 -58.61 -0.01 -1.73 -78.18zm-141.85 0l48.59 0 -0.66 78.19 -46.15 -0.01 -1.78 -78.18zm690.53 -255.73l1.15 -24.39 811.56 0.01 2.68 24.36 -0.37 264.32 -812.98 0 -2.04 -264.3zm3315.05 -177.33l59.43 -0.05 1.59 405.44 -58.48 0.87 -2.54 -406.26zm-154.3 0.24l59.02 -0.37 1.6 405.24 -58.28 1.13 -2.34 -406zm-155.14 -0.24l59.71 -0.17 1.73 405.52 -58.9 0.92 -2.54 -406.27zm-156.25 -0.92l62.32 -0.68 2.43 407.89 -61.49 1.18 -3.26 -408.39zm-152.79 1.16l59.04 -0.37 1.6 405.24 -58.28 1.13 -2.36 -406zm-156.65 -1.16l62.32 -0.68 2.43 407.89 -61.49 1.18 -3.26 -408.39zm-154.35 0.22l62.09 -1.19 2.58 408.33 -61.62 1.07 -3.05 -408.21zm-154.21 0.32l61.7 -1.71 2.63 408.63 -61.47 0.93 -2.86 -407.85zm-152.26 1.46l58.21 -1.56 1.95 406.11 -58.47 0.23 -1.69 -404.78zm-154.72 0l58.48 -1.69 2.12 406.5 -58.93 -0.06 -1.67 -404.75zm-154.69 0.03l58.68 -1.8 2.3 406.76 -59.31 -0.31 -1.67 -404.65zm-154.29 0.26l58.29 -2.13 2.32 406.87 -59.15 -0.41 -1.46 -404.33zm-154.72 0l58.29 -2.13 2.32 406.87 -59.15 -0.41 -1.46 -404.33zm-154.69 0.02l58.52 -2.24 2.44 407.19 -59.52 -0.7 -1.44 -404.25zm-1542.3 -1.95l54.44 0 -0.54 406.9 -53.57 0 -0.33 -406.9zm-154.44 0l54.16 0 -0.54 406.9 -52.97 0 -0.65 -406.9zm1542.41 0l60.54 0 0.16 406.9 -60.75 0 0.05 -406.9zm-154.72 0l61.15 0 0 406.9 -61.15 0 0 -406.9zm-1545.33 0l60.7 0 -0.05 406.9 -60.7 0 0.05 -406.9zm4018.07 164.45l381.83 -1.16 0.37 140.92 -95.66 -1.69 -1.14 234.67 95.77 2.87 1.25 59 -382.05 -0.62 -0.46 -58.7 93.51 -1.78 -2.03 -232.68 -91.41 -2.86 0.02 -137.97zm-4187.4 374.41l75.78 0 -1.14 58.5 -407.3 -0.02 5.07 -440.07 402.69 0 0.68 140.53 -69.79 0 -5.99 241.06zm690.92 -98.06l-61.61 1 0.11 -338.76 991.68 -1.11 2 340.26 -63.45 0 -0.24 -312.41 -867.87 -3.08 -0.62 314.1zm956.11 -1321.3l12.33 -2.12 28.52 0.03 0.03 1440.83 -0.53 25.32 -36.34 -0.02 -0.78 -25.3 1.41 -45.11 -0.18 -51.59 -4.46 -1342.04zm-24.54 882.39l-1.59 73.26 -57.45 -0.61 -3.87 -73.8 28.97 -6.65 33.94 7.8zm-129.33 -882.39l11.48 -2.12 29.01 0.03 0 957.78 -40.5 -0.88 0.01 -954.81zm-25.39 882.39l-1.59 73.26 -57.45 -0.61 -3.87 -73.8 62.91 1.15zm-93.6 72.68l-32.56 1.26 -2.21 -4.29 -3.56 -106.38 3.89 -848.27 38.6 -0.36 3.22 932.9 -0.99 11.88 -6.39 13.26zm-61.19 -72.19l-1 72.77 -58.08 -0.44 -5.84 -13.35 -0.92 -18.55 2.83 -42.24 48.31 -4.3 14.7 6.11zm-128.7 -883.99l37.19 0.04 2.31 956.76 -39.63 -1.17 0.13 -955.63zm-25.41 883.5l-1.68 73.26 -57.9 -0.61 -6.51 -31.73 2.64 -42.07 63.45 1.15zm-129.87 -882.39l11.48 -2.12 29.04 0.03 -0.03 957.78 -40.5 -0.88 0.01 -954.81zm-25.39 882.39l-1.59 73.26 -57.45 -0.61 -3.87 -73.8 62.91 1.15zm-93.6 72.68l-32.56 1.26 -5.77 -478.14 3.88 -480.8 38.61 -0.36 3.22 932.9 -7.38 25.14zm-122.76 -51.4l2.49 -23.28 55.28 0.11 3.56 23.1 -0.6 52.08 -60.73 0 0 -52.01zm-31.55 51.62l-32.5 0.77 -4.07 -8.77 -1.89 -11.05 0.25 -458.05 3.62 -480.56 38.52 -0.52 2.9 900.13 0.51 32.69 -7.34 25.36zm-123.17 -51.62l2.49 -23.28 55.13 0.11 3.71 23.1 -0.6 52.08 -60.73 0 0 -52.01zm-30.22 560.43l-36.32 -1.3 -0.19 -1463.7 38.12 -0.62 -1.61 1465.62zm3585.24 -688.05l77.12 -0.99 0.63 25.46 -0.11 53.29 -77.79 -0.45 0.15 -77.31zm-154.72 0l24.7 -1.02 12.88 0.16 23.21 1.62 0.3 74.04 -61.23 2.94 0.14 -77.74zm-154.27 0.45l24.23 -1.57 12.9 0.26 23.21 1.62 0.3 74.04 -60.75 2.66 0.11 -77.01zm-100.88 76.84l-51.04 0.75 -3.82 -78.85 62.44 -0.28 -7.58 78.38zm-208.47 -76.53l24.14 -1.49 12.92 0.25 23.35 1.2 0.69 74.73 -61.36 2 0.26 -76.69zm-154.72 0l24.14 -1.49 12.92 0.25 22.96 1.5 0.6 73.83 -60.86 2.69 0.24 -76.78zm-154.72 0l24.14 -1.49 12.92 0.25 23.35 1.2 0.69 74.73 -61.36 2 0.26 -76.69zm-154.24 0.41l23.66 -1.92 12.92 0.33 23.32 1.19 0.68 74.64 -60.78 1.71 0.2 -75.95zm-154.27 0.42l23.19 -2.41 12.94 0.4 23.32 1.19 0.68 74.64 -60.35 1.45 0.22 -75.27zm-97.43 76.63l-50.68 -1.25 -8.47 -32.88 1.63 -43.09 61.38 -2.98 -3.86 80.2zm-211.5 -76l59.32 -2.24 1.33 76.62 -60.97 -0.16 0.32 -74.22zm-154.75 -0.03l59.75 -2.43 1.46 77.47 -61.55 -0.82 0.34 -74.22zm-154.53 22.28l1.5 -24.49 58.03 0.2 1.43 76.99 -25.5 0.71 -35.46 -0.12 0 -53.29zm-154.72 0l1.5 -24.49 58.03 0.2 1.43 76.99 -25.5 0.71 -35.46 -0.12 0 -53.29zm-154.72 0l1.5 -24.49 58.44 0.03 1.54 24.45 -0.26 53.3 -61.22 0 0 -53.29zm-154.26 0l1.44 -24.49 58.13 0.03 1.45 24.45 -0.26 53.3 -60.73 0 -0.03 -53.29zm-154.72 0l1.44 -24.49 58.33 0.03 1.73 24.45 -0.28 53.3 -61.18 0 -0.04 -53.29zm-154.27 0l1.36 -24.49 57.96 0.03 1.73 24.45 -0.28 53.3 -60.77 0 0 -53.29zm-154.72 0l1.36 -24.49 57.96 0.03 1.73 24.45 -0.28 53.3 -60.77 0 0 -53.29zm-155.17 0l1.44 -24.49 58.73 0.03 1.79 24.45 -0.29 53.3 -61.73 0 0.06 -53.29zm-154.27 0l1.37 -24.49 58.26 0.03 1.88 24.45 -0.29 53.3 -61.13 0 -0.09 -53.29zm-154.72 0l1.37 -24.49 58.02 0.03 1.66 24.45 -0.28 53.3 -60.68 0 -0.09 -53.29zm-154.23 0l1.3 -24.49 57.93 0.03 1.79 24.45 -0.29 53.3 -60.73 0 0 -53.29zm-154.72 0l1.3 -24.49 58.04 0.03 1.68 24.45 -0.29 53.3 -60.73 0 0 -53.29zm-154.25 0l1.22 -24.49 57.91 0.03 1.9 24.45 -0.31 53.3 -60.79 0 0.07 -53.29zm-154.26 0l1.13 -24.47 57.52 0.01 1.92 24.45 -0.31 53.3 -60.26 0 0 -53.29zm-154.74 0l1.15 -24.47 57.91 0.01 2.01 24.45 -0.34 53.3 -60.63 0 -0.1 -53.29zm-142.29 0l1.22 -24.49 45.78 0.03 2.15 24.43 -0.36 53.32 -48.73 0 -0.06 -53.29zm4005.66 -226.55l61.25 -0.1 -0.09 172.44 -60.73 2.15 -0.43 -174.49zm-154.26 0.6l60.78 -0.79 -0.08 172.53 -60.3 1.95 -0.4 -173.69zm-155.14 -0.6l24.84 -1.47 12.9 0.24 23.95 1.89 -0.12 172.1 -61.57 2.16 0 -174.92zm-154.27 0.6l24.37 -2.2 12.92 0.37 23.95 1.89 -0.06 172.42 -61.16 1.58 -0.02 -174.06zm-154.72 0l24.37 -2.2 12.92 0.37 23.53 2.33 -0.09 171.53 -60.71 2.11 -0.02 -174.14zm-154.72 0l24.37 -2.2 12.92 0.37 23.95 1.89 -0.06 172.42 -61.16 1.58 -0.02 -174.06zm-154.22 0.65l23.84 -2.99 12.95 0.51 23.95 1.89 -0.06 172.42 -60.68 1.36 0 -173.19zm-154.28 0.62l23.37 -3.73 12.98 0.63 23.95 1.89 -0.06 172.42 -60.24 1.18 0 -172.39zm-154.3 -3.1l60.33 0.84 -0.03 173.97 -24.36 1.65 -35.94 -0.27 0 -176.19zm-154.72 0l60.78 0.58 0 175.09 -24.85 1.16 -35.91 -0.18 -0.02 -176.65zm-154.72 0l61.24 0.28 0 175.87 -25.31 0.59 -35.91 -0.09 -0.02 -176.65zm-154.25 0l60.77 0.28 0 175.87 -25.31 0.59 -35.5 -0.09 0.04 -176.65zm-154.72 0l60.77 0.28 0 175.87 -25.31 0.59 -35.46 -0.09 0 -176.65zm-154.72 0l61.23 0 -0.01 176.65 -61.22 0 0 -176.65zm-154.28 0l60.79 0 -0.01 176.65 -60.73 0 -0.05 -176.65zm-154.72 0l61.2 0 0.03 176.65 -61.17 0 -0.06 -176.65zm-154.25 0l60.79 0 -0.03 176.65 -60.76 0 0 -176.65zm-154.72 0l60.83 0 -0.08 176.65 -60.75 0 0 -176.65zm-155.14 0.04l61.65 0 -0.04 176.56 -61.55 0 -0.06 -176.56zm-154.26 0l61.15 0 0 176.56 -61.1 0 -0.05 -176.56zm-154.76 -0.04l60.83 0 -0.08 176.65 -60.75 0 0 -176.65zm-154.23 0l60.73 0 0 176.65 -60.82 0 0.09 -176.65zm-154.72 0l60.73 0 0 176.65 -60.73 0 0 -176.65zm-154.21 0.04l60.64 0 0 176.56 -60.64 0 0 -176.56zm-154.32 -0.04l60.54 0 -0.27 176.65 -60.27 0 0 -176.65zm-154.72 0l60.75 0 0 176.65 -60.65 0 -0.1 -176.65zm3921.6 -101.79l5.64 13.94 -3.04 61.49 -29.76 2.89 -30.83 -10.41 -0.24 -66.56 58.23 -1.35zm-154.72 0l5.64 13.94 -3.04 61.49 -60.11 -9.25 -0.23 -64.32 57.74 -1.86zm-213.32 1.35l62.07 -0.28 -0.81 73.06 -58.26 0.91 -3 -73.69zm-95.45 -1.53l6.17 32.92 -4.05 42.86 -60.16 -10.31 -0.38 -63.43 58.42 -2.04zm-155.39 0.18l2.6 75.43 -60.11 -9.25 -0.24 -64.32 57.75 -1.86zm-154.05 -0.18l2.12 75.78 -60.16 -10.31 -0.38 -63.43 58.42 -2.04zm-209.49 0.18l54.4 0 5.32 13.94 -3 61.49 -58.98 1.13 -3.85 -37.12 0.14 -19.63 5.97 -19.81zm-153.89 0.24l53.94 -0.42 2.12 75.78 -58.97 1.02 2.91 -76.38zm-154.76 -0.1l57.24 0.96 -0.04 66.13 -60.14 8.05 -3.7 -35.84 2.21 -30.62 2.04 -4.5 2.39 -4.18zm-154.66 0.03l57.65 0.7 -0.05 67.85 -60.57 6.52 2.97 -75.07zm-154.72 0l58.09 0.48 -0.07 69.49 -60.99 5.1 2.97 -75.07zm-154.21 0.24l57.58 0.2 0.14 70.13 -25.12 8.48 -35.87 -4.19 -3.43 -35.57 0.11 -19.59 2.1 -10.91 2.06 -4.45 2.43 -4.1zm-154.72 0l57.58 0.2 0.14 70.13 -25.12 8.48 -35.87 -4.19 -3.43 -35.57 0.11 -19.59 2.1 -10.91 2.06 -4.45 2.43 -4.1zm-154.72 0l58.05 -0.04 0.17 71.83 -4.01 2.43 -57.48 0.4 -1.22 -66.07 2.06 -4.45 2.43 -4.1zm-154.46 0.18l57.79 -0.25 0.55 72.38 -61.67 2.11 3.33 -74.24zm-154.72 0l58.25 -0.25 0.62 72.38 -62.2 2.11 -3.29 -35.37 6.62 -38.87zm-154.21 0.39l57.74 -0.7 0.84 72.66 -4.35 2.58 -57.68 -1.08 -2.91 -34.98 0.08 -19.53 6.28 -18.95zm-154.72 0l57.74 -0.7 0.84 72.66 -26.82 7.5 -35.21 -6 -2.91 -34.98 0.08 -19.53 6.28 -18.95zm-155.23 -0.39l58.7 -0.25 0.63 72.38 -4.44 2.52 -22.62 4.75 -35.6 -5.16 -3.29 -35.37 6.62 -38.87zm-154.21 0.39l58.19 -0.7 0.86 72.66 -4.5 2.58 -22.8 4.92 -35.2 -6 -2.91 -34.98 0.08 -19.53 6.28 -18.95zm-154.72 0l57.74 -0.7 0.84 72.66 -9.02 4.81 -17.8 2.69 -35.23 -6 3.47 -73.46zm-157.88 -0.59l61.26 -0.02 -1.19 74.78 -55.55 -0.06 -4.52 -74.7zm-154.72 0l61.36 -0.02 -1.3 74.78 -55.51 -0.06 -4.55 -74.7zm-154.22 0l61.27 -0.02 -1.32 74.78 -55.68 -0.06 -4.27 -74.7zm-154.23 0l60.68 -0.02 -1.22 74.78 -55.59 -0.06 -3.87 -74.7zm-154.72 0l61.38 -0.02 -1.55 74.8 -55.87 -0.08 -3.96 -74.7zm3863.89 -38.28l0 -13.89 61.32 -0.09 -0.68 23.7 -36.22 2.6 -24.42 -12.32zm-154.25 0l0 -13.27 60.83 -0.81 -0.66 23.8 -36.22 2.57 -23.95 -12.29zm-155.19 0l0 -13.89 61.75 -0.36 -0.71 24.37 -36.64 2.18 -24.4 -12.3zm-154.25 0l0 -13.27 61.28 -1.07 -0.71 24.46 -36.65 2.15 -23.92 -12.27zm-154.72 0l0 -13.27 60.83 -0.81 -0.66 23.8 -36.22 2.57 -23.95 -12.29zm-154.72 0l0 -13.27 61.28 -1.07 -0.71 24.46 -36.65 2.15 -23.92 -12.27zm-154.41 -12.61l60.98 -1.84 -0.72 24.57 -59.21 1.08 -1.05 -23.81zm-154.24 0.62l60.46 -2.55 -0.68 24.66 -58.75 0.91 -1.03 -23.02zm-154.23 0.6l60.45 -3.54 0.03 14.93 -23.97 12.32 -35.61 -2.96 -0.9 -20.75zm-154.71 11.39l60.93 -13.89 -24.58 26.57 -36.35 -12.68zm-154.72 0l61.41 -14.51 -25.08 27.21 -36.33 -12.7zm-154.24 0l60.93 -14.51 -25.09 27.21 -35.84 -12.7zm-154.72 0l60.93 -14.51 -25.1 27.21 -35.83 -12.7zm-154.72 0l48 -14.68 13.38 8.23 -1.16 18.07 -60.22 -11.62zm-154.27 -15.13l60.94 0 -0.01 15.13 -1.3 11.61 -59.63 -26.74zm-154.72 0l61.39 0 0 15.13 -1.37 11.61 -60.02 -26.74zm-154.24 0l60.91 0 0 15.13 -1.37 11.61 -59.54 -26.74zm-154.72 0l60.81 0 0.1 15.13 -1.37 11.61 -59.54 -26.74zm-155.2 0l61.79 0 0.07 15.13 -1.5 11.61 -60.36 -26.74zm-154.24 0l61.38 0 0 15.13 -1.5 11.61 -59.88 -26.74zm-154.72 0l60.91 0 0 15.13 -1.37 11.61 -59.54 -26.74zm-154.24 0l60.9 0 0 15.13 -1.5 11.61 -59.4 -26.74zm-154.72 0l60.9 0 0 15.13 -1.5 11.61 -59.4 -26.74zm-154.24 15.13l26.96 -16.58 32.34 28.19 -32.72 0.66 -26.58 -12.27zm-154.27 0l0 -15.13 58.85 26.74 -58.85 -11.61zm-154.72 0l0 -15.13 60.91 0 -46.9 26.94 -14.01 -11.81zm3920.03 -103.04l8.47 25.34 -4.19 36.33 -48.19 1.42 -12.45 -8.86 -0.05 -53.02 56.41 -1.21zm-154.72 0l8.47 25.34 -4.19 36.33 -60.16 -9.16 -0.06 -50.86 55.94 -1.65zm-154.13 -0.2l3.93 62.12 -60.76 -8.42 -0.17 -52.29 57 -1.41zm-154.72 0l3.93 62.12 -60.29 -10.24 -0.17 -50.03 56.53 -1.85zm-155.31 0.2l4.27 61.67 -60.17 -9.16 -0.04 -50.86 55.94 -1.65zm-154.13 -0.2l3.93 62.12 -60.29 -10.24 -0.17 -50.03 56.53 -1.85zm-205.89 0.18l50.63 0 4.27 61.74 -59.1 1.14 -2.98 -49.62 7.18 -13.26zm-153.9 0.27l50.1 -0.36 4.09 61.92 -58.97 1.02 4.78 -62.58zm-155.13 -0.08l55.39 0.82 0.31 52.45 -60.14 8.05 -3.95 -29.57 1.21 -18.62 7.18 -13.13zm-154.72 0l55.84 0.62 0.33 54.21 -60.61 6.49 4.44 -61.32zm-154.72 0l56.25 0.42 0.36 55.83 -61.05 5.07 4.44 -61.32zm-154.38 0.22l55.91 0.17 0.54 56.39 -25.12 8.48 -35.87 -4.19 -3.66 -29.31 1.16 -18.56 7.04 -12.98zm-154.72 0l55.91 0.17 0.54 56.39 -25.12 8.48 -35.87 -4.19 -3.66 -29.31 1.16 -18.56 7.04 -12.98zm-154.72 0l56.35 -0.03 0.6 58.05 -4.01 2.43 -57.48 0.4 -2.5 -47.87 7.04 -12.98zm-154.62 0.15l56.25 -0.22 0.98 58.61 -61.67 2.11 -2.38 -47.63 6.82 -12.87zm-154.72 0l56.68 -0.22 1.08 58.61 -62.2 2.11 -2.38 -47.63 6.82 -12.87zm-154.3 0.34l56.26 -0.6 1.3 58.87 -4.35 2.58 -57.68 -1.08 -3.13 -28.7 7.6 -31.07zm-154.72 0l56.26 -0.6 1.3 58.87 -26.82 7.5 -35.21 -6 -3.13 -28.7 1.07 -18.43 6.53 -12.64zm-155.14 -0.34l57.1 -0.22 1.12 58.61 -4.44 2.52 -22.62 4.75 -35.6 -5.16 4.44 -60.5zm-154.3 0.34l56.67 -0.6 1.36 58.87 -4.5 2.58 -22.8 4.92 -35.2 -6 4.47 -59.77zm-154.72 0l56.26 -0.6 1.3 58.87 -9.02 4.81 -17.8 2.69 -35.23 -6 4.49 -59.77zm-158.68 -0.49l60.63 -0.03 -0.89 61 -55.41 -0.06 -4.33 -60.91zm-154.72 0l60.63 -0.03 -0.89 61 -55.41 -0.06 -4.33 -60.91zm-154.24 0l60.56 -0.03 -0.92 61.02 -55.7 -0.08 -3.94 -60.91zm-154.24 -0.02l60.08 -0.01 -0.92 61.02 -55.39 -0.08 -3.77 -60.93zm-154.72 0l60.49 -0.01 -0.97 61.02 -55.64 -0.08 -3.88 -60.93zm3864.06 -331.97l58.79 -0.04 2.17 303.11 -60.87 2.15 -0.09 -305.22zm-154.29 0.22l58.36 -0.29 2.17 303.14 -60.44 1.95 -0.09 -304.8zm-155.15 -0.22l59.02 -0.14 2.4 303.63 -61.33 1.65 -0.09 -305.14zm-154.29 0.22l58.58 -0.39 2.41 303.66 -60.9 1.47 -0.09 -304.74zm-154.72 0l58.36 -0.29 2.17 303.14 -60.44 1.95 -0.09 -304.8zm-154.72 0l58.58 -0.39 2.41 303.66 -60.9 1.47 -0.09 -304.74zm-100.03 305.14l-48.27 0 -8.34 -70.57 3.41 -235.36 58.14 -0.99 3.4 229.92 0.28 58.28 -8.62 18.72zm-154.31 0.08l-47.83 -0.33 -9.22 -31.19 3.7 -274.23 57.96 -1.4 3.49 230.07 -8.1 77.08zm-208.52 -304.53l57.55 -1.31 2.68 304.4 -60.19 0.38 -0.04 -303.47zm-154.72 0l57.79 -1.4 2.92 304.92 -60.68 -0.11 -0.03 -303.41zm-154.69 0.02l57.96 -1.48 3.14 305.37 -61.07 -0.62 -0.03 -303.27zm-154.55 -1.44l60.82 0.33 -0.06 305 -60.03 0.49 -0.73 -305.82zm-154.72 0l60.82 0.33 -0.06 305 -60.03 0.49 -0.73 -305.82zm-154.72 0l61.27 0 -0.06 305.75 -60.48 0 -0.73 -305.75zm-154.26 0l60.93 0 -0.18 305.75 -60.07 0 -0.68 -305.75zm-154.72 0l61.23 0 -0.02 305.75 -60.46 0 -0.75 -305.75zm-154.25 0l60.76 0 -0.02 305.75 -60.11 0 -0.63 -305.75zm-154.73 0l60.79 0 -0.04 305.75 -60.11 0 -0.64 -305.75zm-155.18 0l61.72 0 -0.06 305.75 -60.96 0 -0.7 -305.75zm-154.26 0l61.27 0 -0.07 305.75 -60.62 0 -0.58 -305.75zm-154.72 0l60.87 0 -0.14 305.75 -60.09 0 -0.64 -305.75zm-154.22 0l60.76 0 -0.06 305.75 -60.07 0 -0.63 -305.75zm-154.72 0l60.77 0 -0.07 305.75 -60.07 0 -0.63 -305.75zm-154.26 0l61.03 0 -0.35 305.75 -60 0 -0.68 -305.75zm-154.27 0l60.27 0 -0.04 305.75 -59.7 0 -0.53 -305.75zm-154.72 0l60.71 0 -0.01 305.75 -60.26 0 -0.44 -305.75zm-141.78 -80.58l1.59 -23.95 4241.21 0.03 -7.15 -0.03 2.03 23.91 -0.42 53.92 -13.8 0 -4241.91 0 18.45 0 0 -53.88zm228.7 -311.74l3917.4 -0.93 -8.62 0.93 0.43 258.38 -3908.17 1.89 -1.04 -260.27zm-153.68 -94.4l1.08 -24.88 4121.58 0.02 14.24 -0.02 1.2 24.87 -0.24 65.37 -4141.08 0 3.22 -65.36zm-87.52 -201.66l4285.65 0.02 -0.06 147.88 -4285.05 1.7 -0.54 -149.6zm2980.23 -31.36c35.25,-17.52 348.53,-103.08 395.54,-111.24 32.45,-5.65 306.32,73.35 367.56,102.3l13.46 7.67c0.74,-1.32 2.97,1.87 4.38,2.91 -90.54,3.11 -732.74,7.72 -780.94,-1.64zm-2379.95 0.42c35.17,-23.19 347.07,-120.03 388.97,-111.91 43.15,8.37 371.68,99.87 391.67,114.98l-780.64 -3.07zm1945.67 -1.07c39.95,-27.14 124.38,-65.91 173.63,-89.97 253.77,-124.01 175.36,-118.1 382.82,-82.87 72.38,12.3 146.38,30.17 215.25,42.09 -14.47,12.99 -25.15,14.91 -44.55,20.11 -163.38,43.68 -340.23,113.8 -506.99,114.21 -72.93,0.19 -147.41,0.73 -220.16,-3.57zm-1502.98 -129.33c71.29,-17.04 146.08,-30.51 220.44,-44.03 119.52,-21.74 137.19,-34.85 207.49,-0.04 115.92,57.41 230.72,113.99 345.6,172.1 -61.42,9.5 -158.86,5.03 -223.68,4.87 -137.71,-0.32 -234.98,-39.7 -374.74,-78.58l-156.44 -44.09c-1.9,-0.78 -8.12,-3.95 -9.47,-4.61l-9.2 -5.62zm1386.61 19.93c17.86,-13.25 41.9,-33.81 56.52,-46.65 110.97,-97.51 67.55,-82.96 215.64,-69.46 54.57,4.99 134.54,9.91 184.93,22.76 -81.09,44.66 -173.8,88.01 -258.97,130.12 -133.32,65.93 -121.85,83.21 -312.08,61.8l113.96 -98.57zm-953.45 -94.99c62.96,-9.36 128.64,-15.95 193.3,-21.91 29.07,-2.66 62.88,-6.96 91.84,-7.99 36.59,-1.32 41.6,15.22 64.49,35.09l222.02 186.81c-32.27,7.53 -157.47,13.33 -185.74,2.72l-385.91 -194.72zm349.8 -32.21c211.38,-27.45 495.33,-10.74 710.67,-1.5 -14.18,21.69 -135.49,117.57 -157.36,136.29 -123.64,105.77 -93.11,89.63 -199.76,89.8 -79.22,0.13 -69.78,13.46 -119.35,-28.13l-234.2 -196.46zm8.4 -29.47c23.78,-67.91 126.53,-153.9 165.69,-195.52 19.93,-21.22 23.58,-27.43 44.87,-45.24 37.53,-31.43 107.06,-100.08 141.49,-116.34 82.77,84.65 294.35,239.03 341.98,355.8l-694.03 1.3zm1489.18 97.84c-12.72,7.77 9.82,4.4 -20.76,5.59 -3.16,0.12 -11.98,-1.41 -15.75,-2.11 -13.23,-2.44 -24.12,-5.68 -37.09,-8.2l-229.88 -40.8c-114.56,-16.94 -58.89,-2.1 -118.3,-62.13 -115.1,-116.29 -162.58,-141.49 -311.7,-229.5 -59.21,-34.93 -176.2,-92.26 -241.2,-115.98 105.76,1.78 426.72,132.57 530.79,180.5 230.24,106.08 411.6,257.28 443.89,272.63zm-2284.75 9.3c38.21,-44.59 147.28,-114.32 208.09,-153.11 174.53,-111.31 571.03,-292.98 765.98,-310.17 -180.62,95.94 -284.41,119.09 -460.9,260.69 -171.35,137.48 -58.99,125.49 -212.43,148.19 -100.52,14.87 -206.5,43.32 -300.74,54.4zm1861.82 -73.04c-80.7,-5.08 -166.63,-18.54 -250.23,-25.02 -59.49,-4.61 -76.89,9.61 -104.39,-36.98 -34.39,-58.28 -80.79,-104.88 -125.8,-151.44l-105.02 -101.06c-14.11,-12.95 -24.85,-18.06 -39.19,-32.04 -27.98,-27.31 -48.9,-38.42 -70.67,-65.53 75.46,8.87 318.3,132.57 386.05,169.42 97.01,52.76 271.08,172.42 309.25,242.65zm-1436.95 0.15c65.25,-96.39 189.58,-172.06 309.71,-243.59 60.11,-35.8 310.6,-158.23 383.84,-169.05 -9.08,15.49 -0.85,4.43 -13.41,16.81 -34.23,33.72 -151.22,125.24 -180.67,161.49 -32.85,40.48 -131.28,122.97 -163.21,201.18l-336.26 33.16zm1657.09 -242.43c165.32,41.43 560.84,310.46 666.98,450.65 -55.82,-12.79 -123.63,-41.94 -182.55,-60.01 -136.6,-41.93 -185.05,-30.59 -262.07,-98.56l-136.03 -102.33c-10.83,-7.41 -23.28,-15.73 -34.72,-23.16l-35.77 -24.94 -171.35 -96.77c-112.11,-58.01 -261.45,-119.01 -383.64,-157.81 -54.27,-17.22 -167.91,-41.82 -209.78,-61.33 145.32,-11.88 666.77,110.5 748.93,174.26zm-1842.43 106.28c-23.25,23.75 -165.98,106.8 -236.02,167.11 -122.14,105.16 -81.15,55.95 -277.72,115.16 -67.56,20.35 -131.22,43.01 -194.27,65.28 81.04,-91.75 208.82,-198.03 330.7,-276.32 62.58,-40.21 123.68,-76.99 192.86,-110.84 60.48,-29.6 147.23,-77.14 211.08,-93.87 174.28,-62.54 495.43,-156.13 683.51,-147.56 -43.99,23.74 -141.48,39.84 -195.85,57.59 -62.38,20.36 -120.77,41.27 -179.92,64.92 -60.48,24.19 -117.54,49.74 -174.11,77.15 -33.71,16.3 -138.59,77.42 -160.26,81.38zm-1974.09 2096.94l2.51 28.98 312.47 -0.72 2.85 654.95 -72.75 0.4 13.06 27.28 68.12 -0.33 1.28 117.19c9.86,24.46 11.61,24.82 26.32,41.19l-0.48 -370.9 402.55 0 0.96 74.62 55.12 3.34 1.76 560.65 -278.03 0.03c18.24,15.38 1.34,10.91 26.83,25.36l4465.22 0.23 19.9 -28.11 -256.08 -0.62 -1.14 -557.67 77.31 -0.44 0 -73.78 382.65 -0.65 -0.83 335.71c17.05,-20.01 20.05,-21.01 28.27,-50.61l-0.16 -68.87 41.02 -1.03 14.34 -26.29 -55.5 0.74 0 -652.48 300.44 0 5.74 -26.72 -713.28 -1.15 -1.93 -135.72 104.28 -0.62 0 -131.99 -104.19 -0.26 -0.39 -748.89 99.92 -1.54 3.01 -131.17 -98.28 0 0.29 -263.24 74.82 -1.56 0.13 -115.87 60.15 -0.48 0 -201.42c-111.63,-8.46 -251.91,-1.34 -366.62,-1.3 -100.57,0.05 -82.31,10.77 -134.58,-49.4 -77.07,-88.72 -205.82,-188.99 -304.04,-257.02 -290.12,-200.97 -666.61,-331.83 -1029.59,-369.33 -30.15,-3.13 -58.43,0.72 -79.2,-17.55 -124.1,-109.25 -213.08,-178.31 -369.87,-54.34 -92.38,73.06 -44.76,62.71 -118.92,69.35 -315.52,28.24 -594.77,120.46 -864.14,256.56 -169.39,85.57 -318.94,206.42 -436.65,311.08 -37.29,33.15 -57.82,66.39 -89.54,97.55 -29.09,28.56 -124.43,13.1 -170.72,13.1 -125.11,0 -250.23,0 -375.33,0l0 203.2 86.85 0 0.73 114.41 151.1 3.31 2.26 262.95 -227.02 0 2.68 131.36 71.06 0 -0.15 751.37 -74.95 0 -0.7 131.2 74.73 0.86 0.79 126.91c-42.28,9.11 -689.51,4.59 -756.46,-1.81z"/>
   <path class="fil5" d="M2072.18 7194.49l85.33 47.28c155.18,77.64 316.98,138.23 483.22,193.68 513.91,171.41 1111.87,224.53 1676.68,150.39 379.54,-49.82 874.21,-193.28 1209.97,-376.13l20.17 -15.22c-22.03,-60.1 -73.08,-145.55 -105.5,-206.99 -42.98,-81.46 -308.29,-590.04 -318.83,-633.17 -1.3,0.96 -2.99,2.38 -3.79,3l-27.11 17.7c-372.13,195.58 -864.5,301.02 -1282.3,301.02 -363.85,0 -854.65,-91.13 -1181.09,-253.74 -59.94,-29.84 -77.21,-31.75 -132.94,-67.47 -10.24,43.88 -81.44,171.47 -104,214.64 -35.32,67.57 -70.32,138.51 -107.07,208.92 -71.71,137.44 -145.2,277.46 -212.74,416.09z"/>
   <path class="fil6" d="M5615.29 5049.51l114.73 0.77 0.17 340.62 -117.51 0.34 2.61 -341.73zm-72.45 341.23l-109.56 0.95c-13.65,-28.09 -6.24,-323.75 -3.73,-344.43l118.64 2.91c2.37,22.16 10.69,314.57 -5.35,340.57zm-293.6 -341.15l115.54 0 0.19 341.65 -117.88 0 2.15 -341.65zm-184.09 0.6l116.91 0.09 0.16 339.75c-34.26,2.42 -86.59,6.98 -117.9,-3.53l0.83 -336.31zm-70.84 340.26l-109.42 1.47c-0.74,-1.58 -1.86,-3.51 -2.21,-4.75 -0.37,-1.25 -1.52,-3.39 -1.89,-5 -3.47,-15.13 -0.39,3.65 -1.92,-11.68l2.46 -323.63 118.58 3.62c2.22,22.44 10.44,314.78 -5.6,339.97zm-292.81 -340.86l115.31 0 0.2 341.65 -117.41 0 1.9 -341.65zm-181.81 -0.08l114.4 0.77 0.17 340.62 -117.05 0.34 2.48 -341.73zm-183.67 0.39l115.78 1.68 0.06 339.12 -116.94 -3.04 1.1 -337.76zm-181.8 -0.13l115.08 -0.18 0.25 341.8 -117 -1.36 1.67 -340.26zm-182.18 -0.26l114.07 0.77 0.17 340.62 -116.56 0.34 2.32 -341.73zm-70.66 342.24l-109.62 -1.05c-4.69,-7.96 -3.82,6.05 -6.95,-20.35 -0.18,-1.54 0.03,-16.77 0.03,-19.43l1.86 -300.7c30.46,-8.03 87.09,-6.7 118.68,-1.15 3.86,30.36 10.48,314.23 -4,342.68zm-295.13 -341.98l115.53 -0.18 0.26 341.8 -117.46 -1.36 1.67 -340.26zm-181.83 -0.18l115.07 0 0.2 341.65 -117.5 0 2.23 -341.65zm-70.4 342.33l-109.41 -1.47c-8.56,-13.44 -7.51,-5.43 -7.37,-39.52l1.75 -303.5 118.61 1.46c2.75,21.17 9.33,315.88 -3.58,343.03zm-295.4 -342.35l115.85 2.68 0.08 334.25c-30.54,10.26 -84.12,6.52 -117.48,2.96l1.55 -339.89zm-181.75 0.02l115.11 0 0.31 341.65 -117.57 0 2.15 -341.65zm-184.41 0.52l117.21 0.17 0.16 341.11 -118.33 -4.31 0.96 -336.97zm-181.82 -0.54l115.86 2.68 0.09 334.25c-30.54,10.26 -84.12,6.52 -117.49,2.96l1.54 -339.89zm-182.18 0.02l115.08 0 0.22 341.65 -117.5 0 2.2 -341.65zm-183.64 0.57l116.45 0.45 0.15 338.85c-33.28,3.56 -86.86,7.3 -117.45,-2.96l0.85 -336.34zm-70.86 340.29l-109.42 1.47 -4.1 -9.75c-3.46,-15.13 -0.38,3.65 -1.92,-11.68l2.46 -323.63 118.58 3.62 1.97 307.06c-0.5,28.02 -0.68,22.08 -7.57,32.91zm3708.65 178.89l-0.75 -543.26 -3898.11 -2.53 0 548.57 3898.86 -2.78z"/>
   <polygon class="fil6" points="1714.89,2894.07 5999.94,2892.37 6000,2744.49 1714.35,2744.47 "/>
   <path class="fil6" d="M5620.88 3268.29l-230.77 0c-8,-8.77 -4.73,3.95 -8.03,-18.87l0.25 -77.66c0,-32.26 -4.67,-69.25 3.9,-101.85l238.27 2.18c8.82,30.42 4.14,67.41 4.14,99.67 0,17.24 -0.04,34.44 0.14,51.68 0.59,55.43 0.16,39.23 -7.9,44.85zm-290.54 -190.66l-0.24 190.23 -236.65 0.48c-15.63,-17.38 -7.69,-72.72 -7.69,-96.58 0,-32.29 -4.63,-69.23 4.12,-99.71 35.74,-7.74 87.51,-3.11 125.51,-3.11 21.49,0 43.04,0.16 64.51,-0.07 61.49,-0.71 45.09,-0.94 50.44,8.76zm-534.79 -5.31l239.76 0 0.09 170.37 -0.51 25.32 -239.48 0 -0.41 -25.34 0.55 -170.35zm-295.3 0.1l239.45 -0.1 0.11 170.37 -0.64 25.35 -238.82 -0.46 -0.1 -195.16zm-295.45 6.39c8.39,-10.88 -11.39,-7.2 23.72,-10.51l216.3 3.75c8.74,30.48 4.11,67.42 4.11,99.71 0,17.24 -0.04,34.44 0.14,51.68 0.57,55.28 0.14,39.27 -7.83,44.9l-236.52 -1.66 0.08 -187.87zm-59.27 189.94l-230.88 -0.85c-8.32,-8.89 -4.44,5.99 -7.96,-18.53l3.83 -179.4 238.07 1.75c9.31,29.09 4.39,109.5 4.84,151.7 0.62,58.13 -0.51,39.86 -7.9,45.33zm-531.65 -196.43l242.17 0 0.09 170.37 -0.99 25.32 -240.79 0 -0.48 -25.34 0 -170.35zm-294.71 0l240.32 0 0.11 170.37 -1.01 25.32 -239.04 0 -0.38 -25.34 0 -170.35zm-295.64 0l240.79 0 0.12 170.37 -0.77 25.32 -239.79 0 -0.32 -25.34 -0.03 -170.35zm-294.7 0.39l239.41 -0.39 0.13 170.37 -0.75 25.45 -238.73 -1.86 -0.06 -193.57zm-55.56 7.97l-0.05 187.05 -236.16 0.81c-16.4,-18.29 -8.62,-179.54 -3.37,-196.67 36.14,-6.31 87.57,-2.53 125.68,-2.53 44.62,0 106.88,-8.57 113.9,11.34zm-534.56 -8.36l214.37 -0.27 24.86 1.59 -0.43 194.23 -238.55 0.14 -0.45 -25.34 0.2 -170.35zm-182.12 228.48l3908.17 -1.89 -0.43 -258.38 8.62 -0.93 -3917.4 0.93 1.04 260.27z"/>
   <polygon class="fil6" points="1798.65,3011.49 5939.73,3011.49 5939.97,2946.12 5938.77,2921.25 5924.53,2921.27 1802.95,2921.25 1801.87,2946.13 "/>
   <polygon class="fil6" points="1726.85,3406.15 1708.4,3406.15 5950.31,3406.15 5964.11,3406.15 5964.53,3352.23 5962.5,3328.32 5969.65,3328.35 1728.44,3328.32 1726.85,3352.27 "/>
   <path class="fil6" d="M1372.41 5310.37c11.03,37.67 156.47,240.59 181.88,267.74l278.03 -0.03 -1.76 -560.65 -55.12 -3.34 -0.96 -74.62 -402.55 0 0.48 370.9z"/>
   <polygon class="fil6" points="1801.87,4990.17 1772.86,4990.17 5872.95,4990.17 5834.27,4990.27 5859.64,4989.68 5859.18,4925.75 1802.43,4925.75 1801.87,4951.04 "/>
   <path class="fil6" d="M6066.24 5575.59c23.92,-19.39 186.78,-252.75 201.91,-297.45l0.83 -335.71 -382.65 0.65 0 73.78 -77.31 0.44 1.14 557.67 256.08 0.62z"/>
   <path class="fil6" d="M1558.74 4613.41c21.59,-11.15 91.7,-8.52 122.87,-1.28l-1.75 239.46c-22.67,5.66 -38.33,3.75 -61.72,3.79 -22.99,0.05 -41.31,3.74 -58.99,-6.06l-0.41 -235.91zm-158.38 1.6l117.4 -0.47 0.06 234.62 -93.1 0.34 -24.35 -1.99 -0.01 -232.5zm299.02 239.29c-0.72,-43.83 -4.56,-210.41 5.99,-241.06l69.79 0 -0.68 -140.53 -402.69 0 -5.07 440.07 407.3 0.02 1.14 -58.5 -75.78 0z"/>
   <path class="fil6" d="M6006.52 4641.6l1.78 -23.99 138.35 0.43 1.28 235.19 -23.48 3.51 -117.93 -0.59 0 -214.55zm-119.76 -23.74l91.41 2.86 2.03 232.68 -93.51 1.78 0.46 58.7c87.42,5.35 290.1,0.84 382.05,0.62l-1.25 -59 -95.77 -2.87 1.14 -234.67 95.66 1.69 -0.37 -140.92 -381.83 1.16 -0.02 137.97z"/>
   <path class="fil7" d="M4260.3 2712.45c72.75,4.32 147.23,3.77 220.17,3.59 166.75,-0.43 343.59,-70.54 506.98,-114.22 19.41,-5.2 30.08,-7.12 44.55,-20.11 -68.87,-11.92 -142.87,-29.79 -215.25,-42.09 -207.47,-35.23 -129.06,-41.14 -382.83,82.88 -49.24,24.05 -133.67,62.82 -173.62,89.95zm-1069.82 -204.37l385.91 194.71c28.26,10.61 153.46,4.8 185.74,-2.72l-222.02 -186.81c-22.89,-19.87 -27.9,-36.41 -64.48,-35.09 -28.97,1.04 -62.78,5.33 -91.85,8 -64.67,5.96 -130.34,12.54 -193.3,21.91zm-12.49 -27.44l336.25 -33.16c31.93,-78.21 130.36,-160.7 163.21,-201.18 29.44,-36.25 146.45,-127.77 180.67,-161.5 12.57,-12.37 4.33,-1.31 13.41,-16.79 -73.25,10.8 -323.73,133.25 -383.84,169.04 -120.12,71.53 -244.46,147.2 -309.7,243.59zm-424.88 72.89c94.24,-11.07 200.22,-39.54 300.74,-54.39 153.44,-22.71 41.08,-10.71 212.44,-148.2 176.48,-141.59 280.26,-164.74 460.88,-260.69 -194.94,17.19 -591.43,198.86 -765.96,310.17 -60.82,38.79 -169.89,108.51 -208.1,153.11zm239.54 -209.05c21.65,-3.96 126.54,-65.07 160.26,-81.38 56.56,-27.39 113.62,-52.96 174.09,-77.14 59.15,-23.65 117.56,-44.56 179.94,-64.91 54.36,-17.75 151.85,-33.86 195.84,-57.6 -188.07,-8.56 -509.24,85.02 -683.52,147.56 -63.84,16.73 -150.6,64.27 -211.07,93.87 -69.18,33.86 -130.28,70.62 -192.86,110.84 -121.88,78.28 -249.65,184.56 -330.7,276.32 63.05,-22.26 126.71,-44.94 194.27,-65.28 196.57,-59.21 155.59,-9.99 277.73,-115.16 70.02,-60.31 212.76,-143.36 236.02,-167.12zm-678.02 369.04l780.64 3.08c-19.99,-15.12 -348.52,-106.61 -391.67,-114.98 -41.9,-8.12 -353.8,88.71 -388.97,111.9zm1234.04 -267.13l694.04 -1.3c-47.63,-116.77 -259.21,-271.15 -341.99,-355.8 -34.42,16.26 -103.95,84.92 -141.49,116.34 -21.29,17.81 -24.93,24.03 -44.86,45.24 -39.16,41.62 -141.91,127.61 -165.7,195.52zm-8.39 29.47l234.2 196.46c49.57,41.6 40.14,28.25 119.35,28.13 106.65,-0.17 76.13,15.97 199.76,-89.79 21.88,-18.73 143.18,-114.6 157.37,-136.3 -215.35,-9.23 -499.3,-25.95 -710.68,1.5zm489.68 225.78c190.23,21.4 178.78,4.13 312.1,-61.8 85.17,-42.12 177.87,-85.47 258.97,-130.13 -50.39,-12.86 -130.37,-17.78 -184.95,-22.76 -148.07,-13.5 -104.66,-28.05 -215.63,69.46 -14.62,12.85 -38.66,33.4 -56.52,46.64l-113.97 98.59zm584.98 -221.15c-38.17,-70.23 -212.25,-189.89 -309.27,-242.65 -67.74,-36.86 -310.57,-160.55 -386.04,-169.42 21.77,27.11 42.69,38.21 70.67,65.52 14.34,13.99 25.08,19.09 39.19,32.04l105.03 101.07c44.99,46.56 91.4,93.16 125.79,151.44 27.49,46.59 44.91,32.36 104.39,36.98 83.61,6.49 169.53,19.94 250.24,25.02zm422.91 63.75c-32.28,-15.36 -213.65,-166.57 -443.88,-272.64 -104.07,-47.93 -425.03,-178.73 -530.79,-180.49 65,23.71 181.99,81.04 241.2,115.97 149.12,88 196.6,113.21 311.7,229.49 59.41,60.04 3.75,45.2 118.3,62.14l229.88 40.81c12.97,2.51 23.86,5.75 37.09,8.19 3.77,0.7 12.6,2.23 15.75,2.11 30.58,-1.19 8.05,2.17 20.75,-5.58zm-202.79 -306.04c-82.15,-63.75 -603.61,-186.13 -748.92,-174.24 41.87,19.5 155.51,44.11 209.78,61.32 122.19,38.8 271.52,99.79 383.64,157.81l171.35 96.77 35.78 24.95c11.42,7.42 23.89,15.74 34.71,23.16l136.03 102.33c77.02,67.95 125.46,56.62 262.06,98.55 58.92,18.07 126.74,47.22 182.56,60.02 -106.13,-140.2 -501.66,-409.22 -666.99,-450.67zm-140.48 474.91c48.19,9.36 690.4,4.75 780.94,1.65 -1.4,-1.04 -3.64,-4.24 -4.37,-2.91l-13.47 -7.68c-61.24,-28.95 -335.11,-107.96 -367.55,-102.31 -47.02,8.17 -360.31,93.73 -395.55,111.25z"/>
   <path class="fil8" d="M2757.32 2583.13l9.2 5.62c1.35,0.66 7.57,3.83 9.47,4.61l156.44 44.09c139.76,38.88 237.03,78.26 374.74,78.58 64.82,0.16 162.26,4.63 223.68,-4.87 -114.88,-58.11 -229.68,-114.69 -345.6,-172.1 -70.3,-34.81 -87.97,-21.7 -207.49,0.04 -74.36,13.52 -149.15,26.99 -220.44,44.03z"/>
   <path class="fil9" d="M5782.61 5569.34l-3898.86 2.78 0 -548.57 3898.11 2.53c-8.61,-10.56 15.65,-10.97 -57.09,-9.91 -19.34,0.27 -38.76,0.12 -58.11,0.12l-367.46 0c-297.93,0 -3346.01,-8.08 -3422.43,2.04l1.07 556.22c63.42,10.32 3287.96,2.62 3672.78,2.62 27.23,0 210.4,8.69 231.99,-7.83z"/>
   <polygon class="fil6" points="6351.62,5131.34 6368.93,5098.03 6343.74,5097.47 6343.59,4653.56 6549,4653.97 6596.56,4479.6 6296.12,4479.6 6296.12,5132.08 "/>
   <path class="fil10" d="M1243.3 5079.06l59.86 2.01 -0.36 -442.51 -234.8 1.12c14.28,71.32 141.49,404.47 175.3,439.38z"/>
   <polygon class="fil6" points="1302.8,4638.56 1303.16,5081.07 1243.3,5079.06 1263.63,5125.04 1336.38,5124.64 1333.53,4469.69 1021.06,4470.41 1063.92,4635.55 "/>
   <polygon class="fil6" points="2390.92,4442.14 3258.79,4445.22 3259.03,4757.63 3322.48,4757.63 3320.48,4417.37 2328.8,4418.48 2328.69,4757.24 2390.3,4756.24 "/>
   <polygon class="fil6" points="3965.66,4898.72 4005.71,4898.98 4005.71,3432.85 3977.62,3432.85 3965.22,3433.55 "/>
   <polygon class="fil6" points="4429.38,4898.98 4469.37,4898.98 4469.42,3432.85 4428.91,3432.85 "/>
   <polygon class="fil6" points="4583.66,4898.98 4623.63,4898.98 4623.66,3432.85 4583.17,3432.85 "/>
   <polygon class="fil6" points="4737.98,4898.98 4777.9,4898.98 4777.93,3432.85 4737.44,3432.85 "/>
   <polygon class="fil6" points="5201.72,4898.98 5241.61,4898.98 5241.64,3432.85 5201.14,3432.85 "/>
   <polygon class="fil6" points="3811.35,4898.47 3850.99,4898.98 3851.03,3432.85 3822.9,3432.84 3810.94,3434.21 "/>
   <polygon class="fil6" points="3656.63,4898.47 3696.27,4898.98 3696.28,3432.85 3668.18,3432.84 3656.22,3434.21 "/>
   <polygon class="fil6" points="3502.35,4898.21 3541.99,4898.98 3541.98,3432.85 3513.46,3432.82 3501.98,3434.94 "/>
   <polygon class="fil6" points="4120.38,4898.72 4159.93,4898.98 4159.95,3432.85 4132.34,3432.85 4119.94,3433.55 "/>
   <polygon class="fil6" points="4275.1,4898.72 4314.65,4898.98 4314.67,3432.85 4287.06,3432.85 4274.66,3433.55 "/>
   <polygon class="fil6" points="5047.42,4898.98 5086.89,4898.98 5086.91,3432.85 5046.88,3432.85 "/>
   <polygon class="fil6" points="4892.7,4898.98 4932.17,4898.98 4932.19,3432.85 4892.16,3432.85 "/>
   <polygon class="fil6" points="5511.58,4898.98 5551.05,4898.98 5551.07,3432.85 5511.04,3432.85 "/>
   <polygon class="fil6" points="5665.89,4898.98 5705.31,4898.98 5705.34,3432.85 5665.3,3432.85 "/>
   <polygon class="fil6" points="5820.61,4898.98 5860.03,4898.98 5860.04,3432.85 5820.02,3432.85 "/>
   <polygon class="fil6" points="5356.86,4898.98 5395.87,4898.98 5395.9,3432.85 5356.32,3432.85 "/>
   <polygon class="fil6" points="3350.87,4776.98 3351.05,4828.57 3349.64,4873.68 3350.42,4898.98 3386.76,4899 3387.29,4873.68 3387.26,3432.85 3358.74,3432.82 3346.41,3434.94 "/>
   <path class="fil10" d="M6368.93 5098.03c43.26,-56.46 157.46,-353.51 180.07,-444.06l-205.41 -0.41 0.15 443.91 25.19 0.56z"/>
   <polygon class="fil6" points="2303.3,3433.42 2265.18,3434.04 2265.37,4897.74 2301.69,4899.04 "/>
   <polygon class="fil4" points="3613.88,3242.67 3614.36,3268.01 3855.15,3268.01 3856.14,3242.69 3856.05,3072.32 3613.88,3072.32 "/>
   <polygon class="fil4" points="3023.56,3242.67 3023.88,3268.01 3263.67,3268.01 3264.44,3242.69 3264.32,3072.32 3023.53,3072.32 "/>
   <polygon class="fil4" points="3319.17,3242.67 3319.55,3268.01 3558.59,3268.01 3559.6,3242.69 3559.49,3072.32 3319.17,3072.32 "/>
   <polygon class="fil4" points="4795,3242.67 4795.41,3268.01 5034.89,3268.01 5035.4,3242.69 5035.31,3072.32 4795.55,3072.32 "/>
   <polygon class="fil4" points="4500.35,3267.58 4739.17,3268.04 4739.81,3242.69 4739.7,3072.32 4500.25,3072.42 "/>
   <polygon class="fil4" points="2138.51,3242.67 2138.96,3268.01 2377.51,3267.87 2377.94,3073.64 2353.08,3072.05 2138.71,3072.32 "/>
   <polygon class="fil4" points="2728.89,3266.28 2967.62,3268.14 2968.37,3242.69 2968.24,3072.32 2728.83,3072.71 "/>
   <path class="fil4" d="M2437.06 3268.54l236.16 -0.81 0.05 -187.05c-39.03,-12.43 -186.58,-5.03 -237.65,-5.03l1.44 192.89z"/>
   <polygon class="fil4" points="5093.45,3268.34 5330.1,3267.86 5330.34,3077.63 5092.29,3075.09 "/>
   <polygon class="fil4" points="4441.24,3268.34 4442.51,3075.25 4204.8,3078.81 4204.72,3266.68 "/>
   <polygon class="fil6" points="1808.34,4898.46 1837.32,4899.55 1839.25,3437.57 1806.57,3437.57 "/>
   <polygon class="fil4" points="3914.65,3267.9 4145.53,3268.75 4147.12,3076.16 3913.37,3076.16 "/>
   <polygon class="fil4" points="5390.11,3268.29 5620.88,3268.29 5622.33,3076.16 5388.56,3076.16 "/>
   <polygon class="fil6" points="2116.54,4898.96 2144.78,4898.96 2146.91,3438.55 2114.44,3438.55 "/>
   <polygon class="fil6" points="1962.98,4898.64 1991.23,4899.31 1993.37,3438.55 1960.92,3438.55 "/>
   <path class="fil10" d="M5064.32 5386.5c31.31,10.51 83.64,5.95 117.9,3.53l-0.16 -339.75 -116.91 -0.09 -0.83 336.31z"/>
   <polygon class="fil10" points="2691.5,5387.08 2809.83,5391.39 2809.67,5050.28 2692.46,5050.11 "/>
   <path class="fil10" d="M2143.97 5386.5c30.59,10.26 84.17,6.52 117.45,2.96l-0.15 -338.85 -116.45 -0.45 -0.85 336.34z"/>
   <polygon class="fil10" points="5247.09,5391.24 5364.97,5391.24 5364.78,5049.59 5249.24,5049.59 "/>
   <polygon class="fil10" points="4699.6,5391.24 4817.01,5391.24 4816.81,5049.59 4701.5,5049.59 "/>
   <polygon class="fil10" points="2874.72,5391.24 2992.29,5391.24 2991.98,5049.59 2876.87,5049.59 "/>
   <path class="fil10" d="M2509.1 5389.46c33.37,3.56 86.95,7.3 117.49,-2.96l-0.09 -334.25 -115.86 -2.68 -1.54 339.89z"/>
   <path class="fil10" d="M3057.07 5389.46c33.36,3.56 86.94,7.3 117.48,-2.96l-0.08 -334.25 -115.85 -2.68 -1.55 339.89z"/>
   <polygon class="fil10" points="3604.58,5390.03 3722.04,5391.39 3721.78,5049.59 3606.25,5049.77 "/>
   <polygon class="fil10" points="2326.26,5391.24 2443.76,5391.24 2443.54,5049.59 2328.46,5049.59 "/>
   <polygon class="fil10" points="3422.19,5391.24 3539.69,5391.24 3539.49,5049.59 3424.42,5049.59 "/>
   <polygon class="fil10" points="5612.68,5391.24 5730.19,5390.9 5730.02,5050.28 5615.29,5049.51 "/>
   <polygon class="fil10" points="4152.55,5390.03 4269.55,5391.39 4269.3,5049.59 4154.22,5049.77 "/>
   <polygon class="fil10" points="4517.21,5391.24 4634.26,5390.9 4634.09,5050.28 4519.69,5049.51 "/>
   <polygon class="fil10" points="4334.92,5387.66 4451.86,5390.7 4451.8,5051.58 4336.02,5049.9 "/>
   <polygon class="fil10" points="3969.72,5391.24 4086.28,5390.9 4086.11,5050.28 3972.04,5049.51 "/>
   <polygon class="fil6" points="2728.37,4389.75 2768.87,4390.63 2768.9,3432.85 2739.86,3432.82 2728.38,3434.94 "/>
   <polygon class="fil6" points="3192.53,4389.75 3233.03,4390.63 3233.03,3432.85 3204.02,3432.82 3192.54,3434.94 "/>
   <polygon class="fil10" points="3791.76,5390.7 3901.38,5391.75 3901.38,5052.02 3791.76,5052.02 "/>
   <polygon class="fil10" points="5433.28,5391.69 5542.84,5390.74 5542.84,5052.88 5433.17,5052.88 "/>
   <polygon class="fil10" points="4884.89,5391.92 4994.31,5390.45 4994.31,5052.46 4884.95,5052.46 "/>
   <polygon class="fil10" points="3244.61,5390.45 3354.02,5391.92 3353.92,5052.46 3244.61,5052.46 "/>
   <polygon class="fil10" points="1964.54,5391.92 2073.96,5390.45 2073.84,5052.46 1964.54,5052.46 "/>
   <polygon class="fil6" points="2883.53,4389.46 2923.16,4390.63 2920.85,3433.87 2883.66,3433.83 "/>
   <polygon class="fil11" points="2576.83,4391.27 2609.39,4390.01 2609.37,3437.63 2576.83,3437.63 "/>
   <polygon class="fil11" points="3040.99,4391.27 3073.55,4390.01 3073.48,3437.63 3040.99,3437.63 "/>
   <polygon class="fil11" points="2422.58,4391 2455.08,4390.23 2455.08,3438.55 2422.56,3438.55 "/>
   <polygon class="fil10" points="1400.37,4847.51 1424.72,4849.5 1517.82,4849.16 1517.76,4614.54 1400.36,4615.01 "/>
   <polygon class="fil10" points="1559.15,4849.32 1675.09,4849.32 1675.08,4614.67 1558.74,4613.41 "/>
   <path class="fil12" d="M5433.28 5391.69l-0.11 -338.81 109.67 0 0 337.86c16.04,-26 7.72,-318.41 5.35,-340.57l-118.64 -2.91c-2.51,20.68 -9.92,316.34 3.73,344.43z"/>
   <path class="fil13" d="M3791.76 5390.7l0 -338.68 109.62 0 0 339.73c14.48,-28.45 7.86,-312.32 4,-342.68 -31.59,-5.55 -88.22,-6.88 -118.68,1.15l-1.86 300.7c0,2.66 -0.21,17.89 -0.03,19.43 3.13,26.4 2.26,12.39 6.95,20.35z"/>
   <path class="fil14" d="M3244.61 5390.45l0 -337.99 109.31 0 0.1 339.46c12.91,-27.15 6.33,-321.86 3.58,-343.03l-118.61 -1.46 -1.75 303.5c-0.14,34.09 -1.19,26.08 7.37,39.52z"/>
   <path class="fil14" d="M4884.89 5391.92l0.06 -339.46 109.36 0 0 337.99c16.04,-25.19 7.82,-317.53 5.6,-339.97l-118.58 -3.62 -2.46 323.63c1.53,15.33 -1.55,-3.45 1.92,11.68 0.37,1.61 1.52,3.75 1.89,5 0.35,1.24 1.47,3.17 2.21,4.75z"/>
   <path class="fil14" d="M1964.54 5391.92l0 -339.46 109.3 0 0.12 337.99c6.89,-10.83 7.07,-4.89 7.57,-32.91l-1.97 -307.06 -118.58 -3.62 -2.46 323.63c1.54,15.33 -1.54,-3.45 1.92,11.68l4.1 9.75z"/>
   <path class="fil15" d="M1346.09 5269.18l-1.28 -117.19 -68.12 0.33c25.53,38.34 42.2,78.66 69.4,116.86z"/>
   <polygon class="fil6" points="1726.43,4288.75 1775.16,4288.75 1775.52,4235.43 1773.37,4211 1727.59,4210.97 1726.37,4235.46 "/>
   <polygon class="fil6" points="1728.35,4827.24 1774.5,4827.25 1775.16,4749.06 1726.57,4749.06 "/>
   <path class="fil1" d="M6179.12 1103.38l105.13 95.26 -183.85 462.91 -111.29 -98.3 29.52 -62.64 -111.74 -101.4 -58.85 35.72 -111.8 -95.2 442.88 -236.35zm-115.06 302.26l62.58 -137.81 -131.14 78.72 68.56 59.09zm-328.05 -416.88c9.94,-19.85 13.26,-39.45 6.83,-55.75 -3.5,-16.54 -16.76,-33.06 -33.06,-42.77 -26.25,-16.32 -52.44,-16.32 -75.63,-3.33 -25.57,13.04 -48.7,32.84 -68.73,65.68 -19.42,29.58 -29.57,59.1 -29.57,88.66 -3.28,26.18 9.93,49.16 36.16,65.68 16.1,11.69 36.19,16.54 55.77,13.21 19.64,-8.57 37.24,-20.94 52.48,-36.17l117.95 75.62c-26.03,42.55 -65.46,68.79 -121.27,82 -52.44,13.04 -108.03,3.1 -164.23,-33.08 -62.35,-39.21 -98.09,-88.37 -108.01,-150.95 -13.21,-62.42 0,-121.51 39.21,-183.64 39.51,-62.18 88.9,-101.85 150.8,-114.84 59.3,-16.52 121.66,-3.33 180.53,35.9 56.03,33.06 88.87,72.29 101.86,118.16 13.03,46.06 6.82,98.55 -20.04,151.01l-121.05 -75.39zm-435.99 -436.5l131.14 59.09 -196.84 426.79 -131.43 -62.64 197.13 -423.24zm-551.36 -197.07l137.99 42.78 55.57 282.39 78.9 -239.84 128.1 42.55 -141.3 446.62 -134.71 -42.78 -58.87 -289 -78.88 246.45 -131.2 -42.78 144.4 -446.39zm-596.95 -98.54l140.87 19.87 -19.42 160.9 131.15 19.64 22.74 -164 144.35 19.58 -65.23 466.26 -141.3 -19.82 22.73 -183.85 -130.74 -19.87 -26.25 184.09 -144.36 -19.87 65.46 -462.93zm-567.89 0l390.65 -9.69 3.1 121.49 -245.6 3.28 3.1 59.08 219.8 -3.33 3.28 111.8 -219.97 3.11 0 59.25 249.55 -6.83 3.04 121.72 -393.68 9.66 -13.27 -469.54zm-399.82 180.77l-131.43 22.97 -19.82 -118.17 400.35 -72.53 23.36 118.34 -131.38 23.15 61.9 344.57 -140.62 26.48 -62.36 -344.81zm-423.71 -13.22l138.22 -42.77 134.24 449.72 -137.57 42.77 -134.89 -449.72zm-462.51 187.15l131.37 -59.09 138.03 321.66 190.01 -82.22 49.16 108.47 -324.72 141.08 -183.85 -429.9zm-462.47 341.24c13.03,-62.13 49.37,-114.84 108.01,-150.78 59.3,-39.67 121.45,-49.38 180.75,-36.35 62.42,16.77 114.84,52.42 150.56,114.84 39.9,59.32 52.94,121.45 43,184.09 -13.19,62.14 -49.36,111.28 -108.68,150.95 -58.85,35.96 -120.76,49.22 -179.85,32.86 -62.64,-13.44 -115.07,-52.66 -154.35,-111.98 -36.33,-62.13 -52.65,-124.53 -39.44,-183.63zm239.38 174.16c24.49,6.83 50.74,3.1 72.53,-9.93 20.31,-13.44 33.51,-35.05 36.17,-59.26 6.38,-26.02 -3.73,-62.42 -29.74,-101.64 -23.15,-39.27 -49.38,-59.08 -75.39,-65.46 -25.81,-6.43 -52.94,-3.33 -72.36,9.71 -19.35,12.97 -32.61,32.84 -39.44,59.03 -3.04,26.46 6.83,59.3 29.57,98.52 26.24,39.29 53.1,62.65 78.66,68.81l0 0.22zm-741.13 173.92l176.81 -160.88c46.33,-39.51 88.82,-55.82 131.14,-49.38 40.59,2.81 78.5,21.54 105.2,52.42 36.12,39.51 52.42,82.22 49.38,124.77 -6.43,42.55 -33.08,85.33 -72.13,121.5l-66.08 59.27 95.66 105.17 -104.97 95.44 -315.01 -348.31zm252.43 65.47l39.45 -39.22c23.13,-19.87 35.72,-36.41 39.27,-49.16 0.4,-15.01 -5.54,-29.34 -16.14,-39.67 -13.2,-13.04 -23.13,-19.65 -36.35,-16.3 -13.03,3.26 -26.23,12.97 -42.55,29.73l-49.14 42.56 65.46 72.06z"/>
   <path class="fil16" d="M559.43 2419.84l25.8 -62.35 486.05 19.58 -29.51 62.64 -141.54 -9.93 -78.27 173.94 104.91 101.85 -26.64 55.76 -340.8 -341.49zm285.2 6.39l-223.29 -16.32 164.45 157.4 58.84 -141.08zm-462.45 515.63l84.87 -295.37 49.38 13.2 -71.84 239.39 137.53 42.78 68.78 -226.4 46.29 16.13 -65.69 223.53 150.56 42.51 69.48 -239.62 48.69 13.26 -88.2 298.46 -429.85 -127.87zm-9.94 308.4l-26.42 147.92 -49.38 -9.94 59.26 -354.45 52.49 9.72 -26.01 147.9 393.49 65.46 -9.93 59.09 -393.5 -65.7zm-91.94 423.48l3.57 -69.03 455.63 -154.04 -3.05 68.96 -138.03 42.56 -9.48 190.44 134.26 55.82 -3.11 62.36 -439.79 -197.07zm269.19 -95.26l-212.92 62.42 202.99 88.82 9.93 -151.24zm-209.87 515.4l9.27 150.79 -48.72 3.56 -26.24 -357.78 48.93 -3.35 9.94 147.71 400.54 -29.74 3.11 62.57 -396.83 26.24zm-16.3 298.71l-9.94 -59.09 445.99 -72.29 10.1 62.41 -446.15 68.97zm160.72 147.69c-26.47,13.25 -49.39,29.57 -59.32,52.47 -9.93,22.92 -9.71,49.17 -3.32,78.95 9.93,29.51 19.39,48.94 36.17,65.7 16.76,16.53 39.45,19.58 65.67,12.98 20.5,-2.67 36.81,-18.95 39.24,-39.45 3.32,-19.65 3.32,-62.2 3.32,-118.18 -3.32,-59.31 6.82,-101.64 19.43,-124.77 16.53,-23.59 41.18,-39.89 69.17,-45.83 42.79,-13.26 82.05,-3.33 111.34,26.19 29.36,29.36 52.93,65.75 62.36,111.81 13.27,52.47 13.27,98.29 -6.14,137.74 -16.99,39.51 -53.11,65.69 -101.87,78.71l-12.98 -52.7c32.39,-9.69 55.53,-29.29 68.56,-55.53 17.84,-59.75 5.7,-124.54 -32.39,-173.92 -20.08,-16.54 -43,-23.13 -72.56,-16.54 -29.29,9.72 -46.06,26.24 -49.38,55.76l0 121.51c3.32,49.14 -3.05,85.27 -16.32,108.4 -16.08,22.74 -36.11,39.28 -65.46,45.87 -39.45,9.71 -75.62,3.34 -104.91,-23.13 -29.57,-26.46 -49.59,-58.86 -62.41,-104.98 -9.87,-45.8 -9.87,-88.59 6.83,-124.74 16.76,-36.13 45.65,-59.28 91.92,-68.97l13.05 52.65zm104.9 735.42l-78.89 -197.12c-16.32,-39.2 -16.32,-72.3 -6.83,-104.9 10.1,-29.52 33.29,-52.65 65.69,-65.92 24.04,-9.47 50,-12.74 75.62,-9.7 23.98,6.61 44.92,21.83 58.86,42.55 -3.11,-26.01 0,-46.06 9.87,-59.1 15.24,-14.7 31.79,-27.98 49.38,-39.42 23.15,-9.93 45.65,-19.65 65.46,-29.51 19.64,-13.52 36.4,-26.48 42.54,-42.8l26.49 62.38c-3.28,9.93 -19.58,19.62 -45.59,32.83 -26.49,9.71 -43.25,19.87 -52.72,22.98 -29.97,19.58 -46.05,32.84 -49.39,49.35 -6.59,16.32 -6.59,32.62 3.34,52.68l52.42 134.23 180.54 -68.78 19.85 55.59 -416.64 164.66zm124.32 -246.48c-12.98,-29.52 -25.79,-52.22 -45.59,-65.48 -16.32,-13.19 -39.9,-13.19 -69.25,-3.26 -19.41,9.86 -35.94,22.9 -42.31,39.45 -9.49,16.08 -6.39,39.45 3.09,65.46l55.98 137.8 144.19 -59.32 -46.11 -114.65zm78.96 630.45l-150.79 -272.45 42.55 -26.25 125 219.81 124.32 -69.01 -115.07 -203.44 42.77 -26.24 114.84 206.76 137.99 -78.73 -124.99 -219.96 46.26 -22.91 150.55 272.46 -393.43 219.96zm505.24 -55.98l39.45 52.71 -268.73 393.9 -39.9 -52.64 242.94 -331.56 -393.67 121.46 -36.18 -49.16 456.09 -134.71zm-131.16 554.87l-39.49 -45.83 338.2 -295.43 39.22 45.88 -337.93 295.38zm347.65 347.85l-45.9 -42.77 78.73 -426.53 -249.32 262.52 -43 -39.45 308.63 -324.94 49.38 42.78 -78.73 426.74 249.34 -262.74 42.52 39.44 -311.65 324.95zm282.38 -141.1c32.4,-45.81 68.57,-72.28 111.28,-78.65 42.55,-6.61 85.55,6.37 131.2,39.2 49.16,36.19 78.67,72.29 88.61,115.09 9.93,42.53 -3.33,85.08 -36.18,134.47l-167.5 236.29 -48.75 -36.13 167.56 -236.34c22.46,-29.51 32.6,-62.35 25.78,-91.92 -6.81,-29.74 -25.78,-55.98 -58.86,-78.9 -29.52,-22.92 -58.85,-29.56 -89.05,-26.01 -26.24,6.39 -52.26,26.01 -75.62,59.09l-166.87 236.51 -49.39 -36.11 167.79 -236.59z"/>
   <path class="fil16" d="M5922.71 6670.63l-49.39 32.84 -262.57 -364.4 46.33 -36.34 265.63 367.9zm196.84 -223.31l111.74 -95.2 32.62 36.17 -272.47 236.28 -32.61 -39.45 114.84 -98.29 -259.19 -305.37 45.59 -35.89 259.48 301.75zm94.97 -620.31c46.11,-6.39 85.56,6.37 124.78,42.55l-39.22 42.77c-26.24,-26.25 -55.75,-32.62 -85.56,-26.25 -29.74,3.11 -58.79,22.93 -85.03,49.16 -18.35,20.95 -31.77,45.43 -39.51,72.13 -6.37,23.13 3.09,46.04 23.19,65.68 25.78,23.13 48.71,26.41 75.39,13.2 25.78,-16.52 58.8,-36.17 98.31,-65.46 42.56,-29.79 75.39,-43 101.58,-46.11 27.16,-0.83 53.61,9.94 72.35,29.59 32.61,29.73 46.05,62.35 42.33,101.62 -6.84,39.9 -26.47,76.69 -55.6,104.91 -32.61,36.18 -68.74,59.31 -108.23,65.93 -36.34,6.36 -72.51,-6.62 -108.24,-39.45l39.05 -42.77c19.58,17.82 46.06,26.22 72.28,23.13 26.24,-3.51 49.39,-16.55 69.26,-42.79 19.36,-19.58 32.62,-42.54 35.88,-62.58 6.67,-22.91 -3.26,-42.54 -23.13,-62.19 -19.58,-16.29 -36.11,-19.8 -55.77,-9.86 -19.4,6.6 -52.46,29.51 -101.63,62.35 -49.15,33.06 -85.1,49.38 -114.15,49.38 -29.79,0.67 -58.24,-11.23 -78.73,-32.84 -29.75,-26.48 -43,-59.31 -36.34,-95.26 3.5,-38.33 18.28,-74.95 42.55,-104.9l-3.11 -32.87 -3.1 0c-0.67,7.53 -4.18,14.58 -10.17,19.64 -9.85,9.72 -22.46,16.32 -36.11,19.58 -13.04,3.34 -22.5,-3.03 -36.17,-13.19 -13.21,-12.99 -16.32,-26.03 -13.21,-45.84 3.73,-16.36 13.21,-32.89 26.88,-49.2 5.51,-6.38 12.13,-12.08 19.39,-16.32 8.2,-8.35 18.29,-14.11 29.81,-16.51l12.75 26.22c-9.71,3.34 -12.75,6.61 -19.18,9.93 -3.28,3.34 -10.11,6.62 -13.21,12.82 -6.62,7.05 -12.13,14.73 -16.76,23.13 -3.72,6.61 -2.2,14.96 3.5,19.82 3.32,3.34 9.48,3.34 16.36,3.34 7.23,-3.34 13.89,-7.76 19.58,-13.44 0,-3.34 3.1,-6.43 6.6,-9.72 0,0 3.11,-6.58 6.43,-13.26l20.05 6.68 6.21 46.03c36.11,-39.45 75.56,-62.58 118.1,-69.01l-0.45 0.23zm584.2 -78.9l-180.54 252.81 -39.45 -29.51 144.36 -203.49 -114.37 -85.27 -137.99 190.46 -39.51 -29.8 134.49 -190.23 -128.06 -88.59 -144.41 206.52 -42.54 -29.33 183.86 -255.93 364.16 262.36zm236.34 -416.65l-98.76 187.15c-23.19,35.95 -45.65,58.85 -75.17,71.89 -29.34,12.97 -62.41,9.93 -95.49,-9.72 -22.68,-11 -41.87,-28.22 -55.52,-49.38 -10.6,-22.51 -12.81,-48.06 -6.43,-72.29 -16.93,19.82 -33.06,29.74 -52.89,29.74 -20.47,0 -40.57,-4.4 -58.86,-13.19 -23.14,-9.72 -46.27,-19.66 -65.67,-29.59 -22.93,-6.83 -42.55,-10.15 -59.31,-6.83l29.72 -59.07c9.49,-3.28 29.59,3.11 52.49,16.55 26.24,9.69 45.65,16.28 52.49,19.62 33.07,13.21 55.74,16.32 72.06,9.94 15.86,-7.52 28.68,-20.33 36.17,-36.18l69.19 -127.88 -171.05 -92.09 29.58 -52.48 397.45 213.81zm-269.42 62.15c-16.07,29.56 -22.45,55.8 -22.45,75.62 3.04,22.96 16.09,39.26 42.32,55.81 22.9,9.65 39.22,13.2 58.86,9.65 19.81,-6.39 36.12,-19.58 46.05,-45.84l71.84 -131.14 -137.3 -72.13 -59.32 108.03zm59.32 -295.39c-52.49,-19.64 -88.83,-49.38 -104.9,-88.83 -16.16,-39.45 -16.99,-85.32 3.03,-137.78 19.42,-55.77 49.38,-95.22 88.83,-114.85 35.94,-19.82 82.07,-19.82 137.82,0l269.13 98.53 -19.81 55.81 -269.19 -98.52c-39.45,-13.29 -72.51,-13.29 -98.75,0 -26.26,13.19 -45.61,39.42 -58.88,75.54 -12.96,36.42 -12.96,65.52 0,91.94 9.49,26.01 36.42,45.88 75.18,59.09l269.19 101.63 -19.42 55.98 -272.23 -98.54zm311.9 -452.97c29.36,0 58.63,-9.71 78.27,-26.03 19.81,-19.85 32.85,-46.26 39.22,-78.94 9.94,-49.17 3.78,-88.83 -26.23,-121.46 -29.75,-32.62 -68.74,-52.49 -121.21,-65.68 -52.5,-9.71 -98.08,-6.39 -137.99,9.93 -39.05,19.58 -65.29,52.43 -75.18,101.63 -9.46,39.22 -3.09,72.29 16.32,101.59 16.93,26.46 46.06,46.09 82.45,52.7l-10.17 59.09c-55.52,-16.32 -95.03,-46.09 -117.93,-85.1 -26.24,-39.67 -33.06,-85.55 -20.04,-141.53 13.2,-65.46 46.28,-111.29 94.98,-137.76 48.92,-26.22 108.68,-32.61 177.49,-19.64 65.67,16.55 118.1,46.11 154.29,91.94 36.16,45.88 49.37,101.64 32.61,167.32 -9.48,46.06 -29.52,85.55 -62.12,111.74 -32.87,29.56 -72.36,42.77 -117.95,39.5l13.19 -59.3zm-69.4 -446.4c-58.63,-3.09 -98.14,-22.96 -127.66,-55.81 -26.69,-32.61 -39.22,-75.4 -36.17,-131.16 3.32,-59.29 23.19,-105.35 52.49,-134.68 29.56,-29.52 75.61,-42.96 134.47,-39.45l285.66 16.52 -3.28 59.31 -288.75 -16.54c-39.28,-3.55 -69.25,6.38 -92.38,26.25 -22.92,19.58 -35.72,49.14 -35.72,88.81 -3.5,39.45 6.37,68.81 26.22,91.72 19.66,19.64 49.39,32.83 89.06,36.17l285.06 16.53 -3.11 59.1 -285.89 -16.77zm282.38 -823.82l13.2 164.23c0,29.74 3.11,52.49 0,72.07 0.68,16.99 -2.88,33.75 -10.15,49.2 -7.05,15.87 -18.28,29.51 -32.39,39.45 -17.39,9.93 -36.34,16.54 -56.21,19.58 -22.46,0 -45.65,-3.27 -62.35,-13.2 -19.43,-12.97 -32.68,-26.01 -42.56,-45.83 -6.44,26.19 -16.32,49.15 -32.6,65.7 -19.87,16.3 -42.56,22.9 -72.37,26.4 -33.46,3.34 -66.75,-7.45 -91.92,-29.72 -26.19,-22.93 -42.33,-55.77 -45.6,-98.56l-16.99 -216.45 449.94 -32.87zm-393.72 88.83l9.92 150.79c3.28,26.48 9.48,46.06 26.24,59.09 16.3,16.55 35.73,19.87 62.13,19.87 26.24,-3.32 43,-13.03 52.5,-32.9 12.96,-19.58 16.99,-42.5 12.96,-72.07l-9.46 -134.71 -154.29 9.93zm203.26 -13.19l10.1 118.16c3.1,32.85 9.94,55.75 23.15,72.07 13.03,13.2 32.44,19.81 55.57,19.81 29.51,-3.5 46.06,-13.19 55.77,-29.74 6.61,-19.64 9.93,-42.56 9.93,-71.84l-9.93 -121.72 -347.64 26.45 203.05 -13.19zm36.11 -761.62l16.32 59.07 -288.77 328.22 351.18 -98.32 16.31 55.55 -432.96 121.67 -19.4 -65.93 285.5 -321.36 -348.09 95.23 -13.04 -56.03 432.95 -118.1zm-71.82 -187.2l19.39 56 -419.97 164.04 -19.79 -56 420.37 -164.04zm-206.78 -436.46l71.84 137.77c29.97,65.5 39.45,121.5 23.13,167.55 -16.29,49.13 -55.74,91.69 -118.12,124.53 -68.78,33.09 -131.2,42.78 -180.57,29.74 -52.43,-12.97 -94.99,-52.42 -127.6,-118.1l-69.23 -138.03 400.55 -203.46zm-328.04 232.79l42.33 88.6c16.07,32.85 42.31,59.1 78.71,78.94 36.13,16.32 85.5,9.72 147.47,-23.13 52.93,-22.96 85.54,-52.26 98.52,-88.65 16.32,-32.83 13.27,-72.28 -9.92,-121.22l-45.61 -91.94 -311.5 157.4z"/>
   <g>
    <path class="fil1" d="M3060.19 7025.13l-104.91 -19.87 19.37 -94.97c32.68,8.79 66.81,7.45 98.77,-3.32 29.33,-9.93 45.65,-29.74 52.02,-65.69l104.96 22.91 -91.46 446.39 -131.61 -26.25 52.86 -259.2zm363.95 -111.77c40.56,-16.55 84.18,-23.38 127.88,-19.83 62.58,3.28 105.12,19.83 134.48,46.05 33.07,26.24 46.26,55.75 42.94,91.94 -0.38,22.69 -8.58,44.73 -23.13,62.35 -12.98,16.3 -32.85,26.24 -55.52,29.56 26.22,3.29 49.35,16.54 61.95,35.97 16.92,19.79 23.13,42.92 23.13,72.29 -3.11,49.38 -26.24,82.21 -68.79,105.13 -42.54,19.87 -91.93,26.01 -144.4,22.9 -59.27,-3.03 -104.92,-16.52 -141.1,-42.56 -39.45,-22.9 -55.73,-62.34 -52.64,-114.84 3.26,-32.83 13.19,-55.96 33.29,-68.96 16.08,-13.25 39.22,-19.84 65.02,-23.19 -45.67,-19.58 -68.8,-52.2 -65.02,-101.34 3.06,-46.12 22.46,-78.96 61.91,-95.26l0 -0.21zm52.93 338.13c12.53,9.94 32.63,13.26 52.04,16.54 17.82,0.22 35.65,-3.05 52.43,-9.71 13.88,-6.83 22.96,-20.72 23.13,-36.13 3.09,-19.64 -3.72,-36.15 -16.31,-45.88 -12.75,-9.7 -29.74,-16.91 -52.41,-19.79 -20.1,0 -39.45,3.03 -52.49,9.94 -15.18,10.08 -23.82,27.51 -23.15,45.58 -3.33,16.54 3.1,29.73 16.99,39.45l-0.23 0zm15.85 -186.91c13.44,10.16 29.51,15.85 46.29,16.55 19.41,0 36.16,0 52.48,-6.61 13.19,-6.83 19.42,-19.64 19.42,-36.18 3.7,-15.64 -1.35,-31.93 -13.04,-42.77 -14.95,-8.12 -31.72,-12.54 -48.93,-12.76 -16.77,-3.11 -33.91,-0.9 -49.38,6.38 -12.98,6.38 -19.81,19.64 -19.81,39.45 -2.65,16.51 3.74,29.56 12.97,36.17l-15.62 186.9 15.62 -187.13zm462.94 32.62l-108.26 6.6 -7.03 -94.97c39.43,-3.57 72.11,-13.26 95.24,-29.8 26.25,-16.32 36.13,-42.55 36.13,-78.67l105.19 -6.43 29.29 456.09 -134.48 9.7 -16.08 -262.52zm321.21 -203.45c33.02,-26.23 72.52,-42.55 118.12,-52.47 59.3,-13.25 108.01,-9.93 144.4,6.37 36.17,16.54 56,42.77 62.36,78.96 5.98,21.77 3.78,45.15 -6.36,65.46 -6.83,19.81 -22.94,33.06 -42.56,42.94 24.71,-3.72 49.84,3.33 68.79,19.64 19.42,13.04 32.61,35.94 39.45,62.19 9.94,49.39 -3.73,88.82 -39.45,118.58 -36.17,32.61 -78.73,52.23 -131.14,62.17 -49.86,12.14 -102.09,11.01 -151.26,-3.1 -39.22,-13.42 -68.78,-46.29 -78.67,-98.75 -6.43,-32.62 -3.1,-58.87 13,-75.41 13.2,-16.3 33.07,-29.51 59.29,-39.2 -49.14,-3.34 -78.72,-33.1 -92.14,-82.01 -6.38,-42.99 3.49,-79.18 36.17,-105.37zm108.02 128.06c13.65,3.32 29.72,6.6 49.38,0 16.52,-3.11 32.39,-9.72 46.05,-19.65 10.16,-9.86 13.19,-22.91 10.16,-39.45 -3.35,-19.58 -13.29,-32.84 -26.92,-35.95 -13.44,-3.26 -29.52,-6.82 -48.95,0 -19.86,3.11 -35.48,9.72 -45.65,19.66 -9.87,9.93 -13.66,22.9 -9.87,42.54 2.82,14.57 12.31,26.68 25.8,32.85zm33.06 183.85c17.39,3.09 35.05,3.09 52.43,0 20.1,-3.34 36.17,-9.92 49.37,-22.92 13.04,-9.93 16.32,-22.96 13.04,-39.49 -3.55,-22.92 -13.04,-36.11 -29.79,-42.54 -12.76,-6.84 -32.62,-6.84 -52.44,-3.29 -22.72,6.61 -39.04,12.99 -48.91,22.91 -13.04,13.03 -16.76,29.58 -13.04,49.39 3.73,19.87 13.04,29.57 29.51,35.94l-33.02 -183.85 32.85 183.85z"/>
   </g>
   <polygon class="fil10" points="6019.03,4849.32 6134.97,4849.32 6134.96,4614.67 6018.62,4613.41 "/>
   <path class="fil1" d="M3196.39 5676.47l268.48 0 0 455.6c0,43.8 -6.42,87.2 -20.16,128.84 -13.62,41.26 -35.2,78.06 -64.99,109.69 -26.6,28.23 -57.79,52.32 -94.13,66.59 -49.32,19.38 -103.82,25.87 -156.53,25.87 -36.99,0 -74.11,-2.97 -110.82,-7.53 -37.25,-4.63 -75.08,-14.17 -108.07,-32.53 -31.19,-17.35 -57.7,-41.25 -80.09,-68.9 -22.43,-27.7 -40.21,-58.71 -49.94,-93.13 -11.74,-41.49 -20.39,-85.65 -20.39,-128.9l0 -455.6 268.47 0 0 465.73c0,24.9 4.74,51.45 22.23,70.32 16.41,17.67 38.65,23.14 62.17,23.14 23.3,0 45.35,-5.44 61.71,-22.81 17.58,-18.68 22.06,-45.94 22.06,-70.65l0 -465.73zm613.09 510.49l0 264.14 -269.4 0 0 -774.63 376.03 0c69.27,0 140.61,15.05 190.89,66.08 48.7,49.44 64.95,116.2 64.95,183.85 0,71.31 -18.77,139.45 -70.35,190.72 -54.89,54.59 -133.94,69.84 -208.65,69.84l-83.47 0zm993.89 -150.81c22.61,12.39 42.88,28.66 58.98,49.95 29.01,38.29 40.31,84.01 40.31,131.52 0,40.29 -8.6,79.05 -28.01,114.48 -18.56,33.87 -44.42,61.28 -77.33,81.45 -26.11,16.02 -60.79,23.33 -90.79,27.46 -30.25,4.17 -66.83,10.09 -97.28,10.09l-389.18 0 0 -774.63 419.7 0c62.64,0 124.73,14.88 170.64,59.89 41.22,40.4 61.25,90.74 61.25,148.35 0,47.54 -13.92,90.99 -44.15,127.81 -7.24,8.8 -15.36,16.65 -24.14,23.63zm-993.89 -54.67l20.71 0c17.48,0 50.62,-1.75 64.5,-14.35 10.31,-9.37 14.41,-20.39 14.41,-34.26 0,-14.12 -3.82,-25.99 -13.36,-36.49 -10.8,-11.9 -42.73,-13.42 -57.26,-13.42l-29 0 0 98.52zm680.94 -24.91l60.14 0c11.23,0 38.05,-1.21 46.95,-9.54 7.83,-7.35 9.44,-19.06 9.44,-29.27 0,-9.78 -1.87,-19.43 -9.29,-26.29 -9.04,-8.33 -34.32,-9.52 -45.68,-9.52l-61.56 0 0 74.62zm0 280.08l75.48 0c14.83,0 43.43,-1.52 55.19,-12.28 9.31,-8.52 12.16,-19.27 12.16,-31.68 0,-11.26 -2.85,-20.41 -11.4,-27.94 -11.68,-10.27 -41.9,-11.69 -56.4,-11.69l-75.03 0 0 83.59z"/>
   <path class="fil17" d="M3226.87 5706.94l207.52 0 0 425.13c0,42.02 -6.26,81.9 -18.62,119.28 -12.37,37.55 -31.76,70.26 -58.23,98.35 -26.44,28.06 -54.14,47.67 -83.09,59.13 -40.39,15.78 -88.91,23.75 -145.39,23.75 -32.71,0 -68.4,-2.49 -107.05,-7.3 -38.66,-4.81 -71.05,-14.45 -97.03,-28.91 -25.98,-14.45 -49.77,-34.88 -71.22,-61.46 -21.59,-26.58 -36.31,-53.99 -44.29,-82.23 -12.83,-45.36 -19.25,-85.56 -19.25,-120.61l0 -425.13 207.53 0 0 435.26c0,38.87 10.18,69.27 30.37,91.04 20.34,21.93 48.51,32.9 84.5,32.9 35.53,0 63.55,-10.81 83.9,-32.4 20.18,-21.43 30.35,-52.01 30.35,-91.54l0 -435.26zm343.68 0l345.56 0c75.29,0 131.62,18.94 169.18,56.99 37.4,38.04 56.19,92.19 56.19,162.47 0,72.1 -20.51,128.58 -61.36,169.12 -40.85,40.69 -103.29,60.97 -187.17,60.97l-113.94 0 0 264.14 -208.46 0 0 -713.69zm208.46 305.02l51.18 0c40.38,0 68.7,-7.48 84.98,-22.27 16.28,-14.78 24.4,-33.72 24.4,-56.81 0,-22.43 -7.02,-41.37 -21.27,-56.98 -14.09,-15.62 -40.69,-23.42 -79.82,-23.42l-59.47 0 0 159.48zm471.54 -305.02l389.22 0c64.81,0 114.57,17.12 149.31,51.18 34.74,34.04 52.11,76.25 52.11,126.58 0,42.2 -12.36,78.41 -37.24,108.48 -16.44,20.27 -40.68,36.06 -72.47,47.85 48.37,12.29 83.73,33.39 106.59,63.45 22.68,30.08 34.11,67.79 34.11,113.15 0,37.03 -8.13,70.26 -24.26,99.83 -16.27,29.57 -38.5,52.84 -66.52,70.11 -17.52,10.63 -43.81,18.43 -79.03,23.26 -46.78,6.47 -77.77,9.8 -93.12,9.8l-358.7 0 0 -713.69zm209.4 280.1l90.61 0c32.41,0 55.1,-5.99 67.77,-17.77 12.68,-11.97 19.1,-29.08 19.1,-51.51 0,-20.77 -6.42,-37.04 -19.1,-48.67 -12.67,-11.8 -34.9,-17.62 -66.35,-17.62l-92.03 0 0 135.57zm0 280.09l105.95 0c35.84,0 61.04,-6.81 75.76,-20.27 14.71,-13.46 22.07,-31.4 22.07,-54.16 0,-21.1 -7.21,-38.04 -21.76,-50.83 -14.55,-12.79 -40.08,-19.28 -76.52,-19.28l-105.5 0 0 144.54z"/>
  </g>
 </g>
</svg>
